G75*
%MOIN*%
%OFA0B0*%
%FSLAX24Y24*%
%IPPOS*%
%LPD*%
%AMOC8*
5,1,8,0,0,1.08239X$1,22.5*
%
%ADD10C,0.0680*%
%ADD11OC8,0.0600*%
%ADD12R,0.1182X0.0867*%
%ADD13R,0.1655X0.0356*%
%ADD14R,0.1655X0.0552*%
%ADD15C,0.0513*%
%ADD16C,0.0710*%
%ADD17OC8,0.0740*%
%ADD18C,0.1340*%
%ADD19OC8,0.0700*%
%ADD20C,0.0700*%
%ADD21C,0.0600*%
%ADD22C,0.0654*%
%ADD23C,0.1386*%
%ADD24C,0.0740*%
%ADD25C,0.0634*%
%ADD26C,0.0674*%
%ADD27C,0.0476*%
D10*
X011620Y001485D02*
X012220Y001485D01*
X014180Y001485D02*
X014780Y001485D01*
X014780Y003265D02*
X014180Y003265D01*
X012220Y003265D02*
X011620Y003265D01*
X028650Y006375D02*
X029250Y006375D01*
X029250Y007375D02*
X028650Y007375D01*
X028650Y008375D02*
X029250Y008375D01*
X029250Y009375D02*
X028650Y009375D01*
X028650Y010375D02*
X029250Y010375D01*
X029250Y011375D02*
X028650Y011375D01*
X028650Y012375D02*
X029250Y012375D01*
D11*
X026950Y009125D03*
X025950Y009125D03*
X024950Y009125D03*
X023950Y009125D03*
X022950Y009125D03*
X021950Y009125D03*
X020950Y009125D03*
X019700Y009875D03*
X015825Y012375D03*
X014825Y012375D03*
X014825Y013375D03*
X014825Y014375D03*
X017825Y014375D03*
X017825Y013375D03*
X019075Y018750D03*
X020075Y018750D03*
X019700Y006875D03*
X020950Y006125D03*
X021950Y006125D03*
X022950Y006125D03*
X023950Y006125D03*
X024950Y006125D03*
X025950Y006125D03*
X026950Y006125D03*
X023950Y005125D03*
X022950Y005125D03*
X021950Y005125D03*
X020950Y005125D03*
X019825Y004625D03*
X019075Y005125D03*
X019825Y005625D03*
X019700Y003250D03*
X019700Y002250D03*
X021450Y003000D03*
X021950Y002250D03*
X022450Y003000D03*
D12*
X004117Y003449D03*
X012346Y004394D03*
X012306Y014472D03*
X004117Y014433D03*
D13*
X013054Y013803D03*
X013054Y013331D03*
X013054Y012819D03*
D14*
X013054Y012189D03*
X013054Y011205D03*
X013054Y010220D03*
X013054Y009236D03*
X013054Y008252D03*
X013054Y007268D03*
X013054Y006283D03*
X013054Y005299D03*
D15*
X011873Y013567D03*
D16*
X011873Y005260D03*
D17*
X015700Y001500D03*
X016700Y001500D03*
X017700Y001500D03*
X018700Y001500D03*
X019700Y001500D03*
X020700Y001500D03*
X022700Y001500D03*
X023700Y001500D03*
X024700Y001500D03*
X025700Y001500D03*
X026700Y001500D03*
X027700Y001500D03*
X027700Y020500D03*
X026700Y020500D03*
X025700Y020500D03*
X024700Y020500D03*
X023700Y020500D03*
X022700Y020500D03*
X021700Y020500D03*
X020700Y020500D03*
X019100Y020500D03*
X018100Y020500D03*
X017100Y020500D03*
X016100Y020500D03*
X015100Y020500D03*
X014100Y020500D03*
X013100Y020500D03*
X012100Y020500D03*
D18*
X008700Y020500D03*
X028700Y014500D03*
X008200Y001500D03*
D19*
X025700Y002625D03*
D20*
X025700Y003625D03*
D21*
X018210Y004125D02*
X017690Y004125D01*
X017690Y005125D02*
X018210Y005125D01*
X018210Y006125D02*
X017690Y006125D01*
X017690Y007125D02*
X018210Y007125D01*
X018210Y008125D02*
X017690Y008125D01*
X017690Y009125D02*
X018210Y009125D01*
X018210Y010125D02*
X017690Y010125D01*
X017690Y011125D02*
X018210Y011125D01*
X015210Y011125D02*
X014690Y011125D01*
X014690Y010125D02*
X015210Y010125D01*
X015210Y009125D02*
X014690Y009125D01*
X014690Y008125D02*
X015210Y008125D01*
X015210Y007125D02*
X014690Y007125D01*
X014690Y006125D02*
X015210Y006125D01*
X015210Y005125D02*
X014690Y005125D01*
X014690Y004125D02*
X015210Y004125D01*
X015085Y015750D02*
X014565Y015750D01*
X014565Y016750D02*
X015085Y016750D01*
X015085Y017750D02*
X014565Y017750D01*
X014565Y018750D02*
X015085Y018750D01*
X017565Y018750D02*
X018085Y018750D01*
X018085Y017750D02*
X017565Y017750D01*
X017565Y016750D02*
X018085Y016750D01*
X018085Y015750D02*
X017565Y015750D01*
D22*
X007392Y016622D03*
X007392Y017606D03*
X007392Y018394D03*
X007392Y019378D03*
D23*
X006325Y020587D03*
X006325Y015413D03*
D24*
X013950Y017750D03*
X013950Y018750D03*
D25*
X023325Y019437D03*
X023325Y011563D03*
D26*
X028653Y003625D02*
X029247Y003625D01*
X029247Y002625D02*
X028653Y002625D01*
D27*
X022950Y007250D03*
X023450Y009750D03*
X024950Y009750D03*
X025450Y011000D03*
X021950Y012750D03*
X020700Y011000D03*
X020950Y010375D03*
X019075Y013875D03*
X018700Y014875D03*
X016700Y014375D03*
X020075Y016250D03*
X019575Y017750D03*
X022700Y016250D03*
X022450Y015250D03*
X026450Y016250D03*
X027075Y015750D03*
X027325Y016750D03*
X015325Y011875D03*
X007325Y012875D03*
X020700Y002625D03*
X026950Y007875D03*
M02*
