%
M48
M72
T01C0.0236
T02C0.0320
T03C0.0354
T04C0.0374
T05C0.0394
T06C0.0400
T07C0.0433
T08C0.0630
T09C0.0906
T10C0.1260
%
T01
X15325Y11875
X16700Y14375
X18700Y14875
X19075Y13875
X21950Y12750
X20700Y11000
X20950Y10375
X23450Y9750
X24950Y9750
X25450Y11000
X26950Y7875
X22950Y7250
X20700Y2625
X7325Y12875
X19575Y17750
X20075Y16250
X22450Y15250
X22700Y16250
X26450Y16250
X27075Y15750
X27325Y16750
T02
X20075Y18750
X19075Y18750
X17825Y18750
X17825Y17750
X17825Y16750
X17825Y15750
X17825Y14375
X17825Y13375
X15825Y12375
X14825Y12375
X14825Y13375
X14825Y14375
X14825Y15750
X14825Y16750
X14825Y17750
X13950Y17750
X13950Y18750
X14825Y18750
X14950Y11125
X14950Y10125
X14950Y9125
X14950Y8125
X14950Y7125
X14950Y6125
X14950Y5125
X14950Y4125
X17950Y4125
X17950Y5125
X19075Y5125
X19825Y4625
X20950Y5125
X21950Y5125
X22950Y5125
X23950Y5125
X23950Y6125
X24950Y6125
X25950Y6125
X26950Y6125
X25700Y3625
X25700Y2625
X22450Y3000
X21950Y2250
X21450Y3000
X19700Y3250
X19700Y2250
X19825Y5625
X20950Y6125
X21950Y6125
X22950Y6125
X19700Y6875
X17950Y7125
X17950Y6125
X17950Y8125
X17950Y9125
X17950Y10125
X17950Y11125
X19700Y9875
X20950Y9125
X21950Y9125
X22950Y9125
X23950Y9125
X24950Y9125
X25950Y9125
X26950Y9125
T03
X23325Y11563
X23325Y19437
T04
X7392Y19378
X7392Y18394
X7392Y17606
X7392Y16622
T05
X12100Y20500
X13100Y20500
X14100Y20500
X15100Y20500
X16100Y20500
X17100Y20500
X18100Y20500
X19100Y20500
X20700Y20500
X21700Y20500
X22700Y20500
X23700Y20500
X24700Y20500
X25700Y20500
X26700Y20500
X27700Y20500
X28950Y3625
X28950Y2625
X27700Y1500
X26700Y1500
X25700Y1500
X24700Y1500
X23700Y1500
X22700Y1500
X20700Y1500
X19700Y1500
X18700Y1500
X17700Y1500
X16700Y1500
X15700Y1500
T06
X14480Y1485
X11920Y1485
X11920Y3265
X14480Y3265
X28950Y6375
X28950Y7375
X28950Y8375
X28950Y9375
X28950Y10375
X28950Y11375
X28950Y12375
T07
X11873Y13567
T08
X11873Y5260
T09
X6325Y15413
X6325Y20587
T10
X8200Y1500
X28700Y14500
X8700Y20500
M30
