G75*
%MOIN*%
%OFA0B0*%
%FSLAX24Y24*%
%IPPOS*%
%LPD*%
%AMOC8*
5,1,8,0,0,1.08239X$1,22.5*
%
%ADD10C,0.0060*%
%ADD11C,0.0050*%
%ADD12R,0.0200X0.0200*%
%ADD13C,0.0100*%
%ADD14C,0.0200*%
%ADD15R,0.0200X0.0150*%
%ADD16C,0.0040*%
%ADD17C,0.0020*%
%ADD18C,0.0000*%
%ADD19C,0.0030*%
%ADD20R,0.1000X0.0200*%
%ADD21C,0.0010*%
%ADD22R,0.0150X0.0200*%
%ADD23C,0.0160*%
%ADD24R,0.0230X0.0160*%
%ADD25C,0.0080*%
D10*
X004105Y002387D02*
X004212Y002280D01*
X004319Y002280D01*
X004425Y002387D01*
X004425Y002921D01*
X004319Y002921D02*
X004532Y002921D01*
X004750Y002814D02*
X004750Y002387D01*
X004856Y002280D01*
X005070Y002280D01*
X005177Y002387D01*
X005177Y002814D01*
X005070Y002921D01*
X004856Y002921D01*
X004750Y002814D01*
X005394Y002814D02*
X005608Y002600D01*
X005608Y002280D01*
X006039Y002280D02*
X006466Y002707D01*
X006466Y002814D01*
X006359Y002921D01*
X006145Y002921D01*
X006039Y002814D01*
X005821Y002814D02*
X005821Y002921D01*
X005821Y002814D02*
X005608Y002600D01*
X005394Y002814D02*
X005394Y002921D01*
X006039Y002280D02*
X006466Y002280D01*
X006683Y002387D02*
X006790Y002280D01*
X007003Y002280D01*
X007110Y002387D01*
X007110Y002494D01*
X007003Y002600D01*
X006790Y002600D01*
X006683Y002707D01*
X006683Y002814D01*
X006790Y002921D01*
X007003Y002921D01*
X007110Y002814D01*
X007328Y002921D02*
X007648Y002921D01*
X007755Y002814D01*
X007755Y002387D01*
X007648Y002280D01*
X007328Y002280D01*
X007328Y002921D01*
X008617Y002600D02*
X008724Y002494D01*
X008937Y002494D01*
X009044Y002387D01*
X008937Y002280D01*
X008617Y002280D01*
X008617Y002600D02*
X008724Y002707D01*
X009044Y002707D01*
X009261Y002600D02*
X009368Y002707D01*
X009582Y002707D01*
X009688Y002600D01*
X009688Y002280D01*
X009906Y002280D02*
X010119Y002280D01*
X010013Y002280D02*
X010013Y002707D01*
X009906Y002707D01*
X010013Y002921D02*
X010013Y003027D01*
X010336Y002600D02*
X010442Y002707D01*
X010656Y002707D01*
X010763Y002600D01*
X010763Y002494D01*
X010336Y002494D01*
X010336Y002600D02*
X010336Y002387D01*
X010442Y002280D01*
X010656Y002280D01*
X010980Y002280D02*
X011194Y002280D01*
X011087Y002280D02*
X011087Y002921D01*
X010980Y002921D01*
X011410Y002600D02*
X011517Y002707D01*
X011837Y002707D01*
X011900Y002675D02*
X011900Y002075D01*
X012000Y002075D01*
X012000Y001975D01*
X012000Y001375D01*
X012200Y001175D01*
X012350Y001175D01*
X012700Y001175D01*
X013650Y001175D01*
X014050Y001175D01*
X014200Y001175D01*
X014400Y001375D01*
X014400Y001975D01*
X014400Y002075D01*
X014500Y002075D01*
X014500Y002675D01*
X014400Y002675D01*
X014400Y002775D01*
X014400Y003375D01*
X014200Y003575D01*
X014050Y003575D01*
X013700Y003575D01*
X012700Y003575D01*
X012350Y003575D01*
X012200Y003575D01*
X012000Y003375D01*
X012000Y002775D01*
X012000Y002675D01*
X011900Y002675D01*
X011837Y002921D02*
X011837Y002280D01*
X011517Y002280D01*
X011410Y002387D01*
X011410Y002600D01*
X012250Y002575D02*
X012350Y002225D01*
X012250Y002175D02*
X012250Y001875D01*
X012150Y001525D02*
X012152Y001553D01*
X012158Y001580D01*
X012167Y001606D01*
X012180Y001631D01*
X012197Y001654D01*
X012216Y001674D01*
X012238Y001691D01*
X012262Y001705D01*
X012288Y001715D01*
X012315Y001722D01*
X012343Y001725D01*
X012371Y001724D01*
X012398Y001719D01*
X012425Y001710D01*
X012450Y001698D01*
X012473Y001683D01*
X012494Y001664D01*
X012512Y001643D01*
X012527Y001619D01*
X012538Y001593D01*
X012546Y001567D01*
X012550Y001539D01*
X012550Y001511D01*
X012546Y001483D01*
X012538Y001457D01*
X012527Y001431D01*
X012512Y001407D01*
X012494Y001386D01*
X012473Y001367D01*
X012450Y001352D01*
X012425Y001340D01*
X012398Y001331D01*
X012371Y001326D01*
X012343Y001325D01*
X012315Y001328D01*
X012288Y001335D01*
X012262Y001345D01*
X012238Y001359D01*
X012216Y001376D01*
X012197Y001396D01*
X012180Y001419D01*
X012167Y001444D01*
X012158Y001470D01*
X012152Y001497D01*
X012150Y001525D01*
X012700Y001525D02*
X013700Y001525D01*
X013850Y001575D02*
X013852Y001603D01*
X013858Y001630D01*
X013867Y001656D01*
X013880Y001681D01*
X013897Y001704D01*
X013916Y001724D01*
X013938Y001741D01*
X013962Y001755D01*
X013988Y001765D01*
X014015Y001772D01*
X014043Y001775D01*
X014071Y001774D01*
X014098Y001769D01*
X014125Y001760D01*
X014150Y001748D01*
X014173Y001733D01*
X014194Y001714D01*
X014212Y001693D01*
X014227Y001669D01*
X014238Y001643D01*
X014246Y001617D01*
X014250Y001589D01*
X014250Y001561D01*
X014246Y001533D01*
X014238Y001507D01*
X014227Y001481D01*
X014212Y001457D01*
X014194Y001436D01*
X014173Y001417D01*
X014150Y001402D01*
X014125Y001390D01*
X014098Y001381D01*
X014071Y001376D01*
X014043Y001375D01*
X014015Y001378D01*
X013988Y001385D01*
X013962Y001395D01*
X013938Y001409D01*
X013916Y001426D01*
X013897Y001446D01*
X013880Y001469D01*
X013867Y001494D01*
X013858Y001520D01*
X013852Y001547D01*
X013850Y001575D01*
X013100Y002375D02*
X013102Y002395D01*
X013108Y002413D01*
X013117Y002431D01*
X013129Y002446D01*
X013144Y002458D01*
X013162Y002467D01*
X013180Y002473D01*
X013200Y002475D01*
X013220Y002473D01*
X013238Y002467D01*
X013256Y002458D01*
X013271Y002446D01*
X013283Y002431D01*
X013292Y002413D01*
X013298Y002395D01*
X013300Y002375D01*
X013298Y002355D01*
X013292Y002337D01*
X013283Y002319D01*
X013271Y002304D01*
X013256Y002292D01*
X013238Y002283D01*
X013220Y002277D01*
X013200Y002275D01*
X013180Y002277D01*
X013162Y002283D01*
X013144Y002292D01*
X013129Y002304D01*
X013117Y002319D01*
X013108Y002337D01*
X013102Y002355D01*
X013100Y002375D01*
X012500Y002375D02*
X012502Y002427D01*
X012508Y002479D01*
X012518Y002531D01*
X012531Y002581D01*
X012548Y002631D01*
X012569Y002679D01*
X012594Y002725D01*
X012622Y002769D01*
X012653Y002811D01*
X012687Y002851D01*
X012724Y002888D01*
X012764Y002922D01*
X012806Y002953D01*
X012850Y002981D01*
X012896Y003006D01*
X012944Y003027D01*
X012994Y003044D01*
X013044Y003057D01*
X013096Y003067D01*
X013148Y003073D01*
X013200Y003075D01*
X013252Y003073D01*
X013304Y003067D01*
X013356Y003057D01*
X013406Y003044D01*
X013456Y003027D01*
X013504Y003006D01*
X013550Y002981D01*
X013594Y002953D01*
X013636Y002922D01*
X013676Y002888D01*
X013713Y002851D01*
X013747Y002811D01*
X013778Y002769D01*
X013806Y002725D01*
X013831Y002679D01*
X013852Y002631D01*
X013869Y002581D01*
X013882Y002531D01*
X013892Y002479D01*
X013898Y002427D01*
X013900Y002375D01*
X013898Y002323D01*
X013892Y002271D01*
X013882Y002219D01*
X013869Y002169D01*
X013852Y002119D01*
X013831Y002071D01*
X013806Y002025D01*
X013778Y001981D01*
X013747Y001939D01*
X013713Y001899D01*
X013676Y001862D01*
X013636Y001828D01*
X013594Y001797D01*
X013550Y001769D01*
X013504Y001744D01*
X013456Y001723D01*
X013406Y001706D01*
X013356Y001693D01*
X013304Y001683D01*
X013252Y001677D01*
X013200Y001675D01*
X013148Y001677D01*
X013096Y001683D01*
X013044Y001693D01*
X012994Y001706D01*
X012944Y001723D01*
X012896Y001744D01*
X012850Y001769D01*
X012806Y001797D01*
X012764Y001828D01*
X012724Y001862D01*
X012687Y001899D01*
X012653Y001939D01*
X012622Y001981D01*
X012594Y002025D01*
X012569Y002071D01*
X012548Y002119D01*
X012531Y002169D01*
X012518Y002219D01*
X012508Y002271D01*
X012502Y002323D01*
X012500Y002375D01*
X012250Y002575D02*
X012250Y002875D01*
X012150Y003225D02*
X012152Y003253D01*
X012158Y003280D01*
X012167Y003306D01*
X012180Y003331D01*
X012197Y003354D01*
X012216Y003374D01*
X012238Y003391D01*
X012262Y003405D01*
X012288Y003415D01*
X012315Y003422D01*
X012343Y003425D01*
X012371Y003424D01*
X012398Y003419D01*
X012425Y003410D01*
X012450Y003398D01*
X012473Y003383D01*
X012494Y003364D01*
X012512Y003343D01*
X012527Y003319D01*
X012538Y003293D01*
X012546Y003267D01*
X012550Y003239D01*
X012550Y003211D01*
X012546Y003183D01*
X012538Y003157D01*
X012527Y003131D01*
X012512Y003107D01*
X012494Y003086D01*
X012473Y003067D01*
X012450Y003052D01*
X012425Y003040D01*
X012398Y003031D01*
X012371Y003026D01*
X012343Y003025D01*
X012315Y003028D01*
X012288Y003035D01*
X012262Y003045D01*
X012238Y003059D01*
X012216Y003076D01*
X012197Y003096D01*
X012180Y003119D01*
X012167Y003144D01*
X012158Y003170D01*
X012152Y003197D01*
X012150Y003225D01*
X012700Y003275D02*
X013700Y003275D01*
X013850Y003225D02*
X013852Y003253D01*
X013858Y003280D01*
X013867Y003306D01*
X013880Y003331D01*
X013897Y003354D01*
X013916Y003374D01*
X013938Y003391D01*
X013962Y003405D01*
X013988Y003415D01*
X014015Y003422D01*
X014043Y003425D01*
X014071Y003424D01*
X014098Y003419D01*
X014125Y003410D01*
X014150Y003398D01*
X014173Y003383D01*
X014194Y003364D01*
X014212Y003343D01*
X014227Y003319D01*
X014238Y003293D01*
X014246Y003267D01*
X014250Y003239D01*
X014250Y003211D01*
X014246Y003183D01*
X014238Y003157D01*
X014227Y003131D01*
X014212Y003107D01*
X014194Y003086D01*
X014173Y003067D01*
X014150Y003052D01*
X014125Y003040D01*
X014098Y003031D01*
X014071Y003026D01*
X014043Y003025D01*
X014015Y003028D01*
X013988Y003035D01*
X013962Y003045D01*
X013938Y003059D01*
X013916Y003076D01*
X013897Y003096D01*
X013880Y003119D01*
X013867Y003144D01*
X013858Y003170D01*
X013852Y003197D01*
X013850Y003225D01*
X015300Y003625D02*
X017600Y003625D01*
X017600Y011625D01*
X016850Y011625D01*
X016848Y011586D01*
X016842Y011547D01*
X016833Y011509D01*
X016820Y011472D01*
X016803Y011436D01*
X016783Y011403D01*
X016759Y011371D01*
X016733Y011342D01*
X016704Y011316D01*
X016672Y011292D01*
X016639Y011272D01*
X016603Y011255D01*
X016566Y011242D01*
X016528Y011233D01*
X016489Y011227D01*
X016450Y011225D01*
X016411Y011227D01*
X016372Y011233D01*
X016334Y011242D01*
X016297Y011255D01*
X016261Y011272D01*
X016228Y011292D01*
X016196Y011316D01*
X016167Y011342D01*
X016141Y011371D01*
X016117Y011403D01*
X016097Y011436D01*
X016080Y011472D01*
X016067Y011509D01*
X016058Y011547D01*
X016052Y011586D01*
X016050Y011625D01*
X015300Y011625D01*
X015300Y003625D01*
X019200Y003600D02*
X019200Y001900D01*
X019202Y001883D01*
X019206Y001866D01*
X019213Y001850D01*
X019223Y001836D01*
X019236Y001823D01*
X019250Y001813D01*
X019266Y001806D01*
X019283Y001802D01*
X019300Y001800D01*
X020100Y001800D01*
X020117Y001802D01*
X020134Y001806D01*
X020150Y001813D01*
X020164Y001823D01*
X020177Y001836D01*
X020187Y001850D01*
X020194Y001866D01*
X020198Y001883D01*
X020200Y001900D01*
X020200Y003600D01*
X020198Y003617D01*
X020194Y003634D01*
X020187Y003650D01*
X020177Y003664D01*
X020164Y003677D01*
X020150Y003687D01*
X020134Y003694D01*
X020117Y003698D01*
X020100Y003700D01*
X019300Y003700D01*
X019283Y003698D01*
X019266Y003694D01*
X019250Y003687D01*
X019236Y003677D01*
X019223Y003664D01*
X019213Y003650D01*
X019206Y003634D01*
X019202Y003617D01*
X019200Y003600D01*
X019700Y003050D02*
X019700Y002900D01*
X019700Y002850D01*
X019700Y002650D02*
X019700Y002600D01*
X019700Y002450D01*
X020905Y003100D02*
X021063Y003100D01*
X021837Y003100D01*
X022063Y003100D01*
X022837Y003100D01*
X022995Y003100D01*
X022775Y003650D02*
X021125Y003650D01*
X021088Y003599D01*
X021053Y003546D01*
X021021Y003490D01*
X020993Y003433D01*
X020969Y003374D01*
X020948Y003314D01*
X020931Y003253D01*
X020917Y003191D01*
X020908Y003128D01*
X020902Y003065D01*
X020900Y003001D01*
X020902Y002937D01*
X020908Y002874D01*
X020917Y002811D01*
X020930Y002749D01*
X020948Y002688D01*
X020968Y002628D01*
X020993Y002569D01*
X021020Y002512D01*
X021052Y002456D01*
X021086Y002403D01*
X021124Y002352D01*
X021165Y002303D01*
X021209Y002257D01*
X021255Y002213D01*
X021304Y002172D01*
X021355Y002135D01*
X021409Y002100D01*
X021464Y002069D01*
X021521Y002041D01*
X021580Y002017D01*
X021640Y001997D01*
X021701Y001980D01*
X021762Y001967D01*
X021825Y001958D01*
X021887Y001952D01*
X021950Y001950D01*
X022013Y001952D01*
X022075Y001958D01*
X022138Y001967D01*
X022199Y001980D01*
X022260Y001997D01*
X022320Y002017D01*
X022379Y002041D01*
X022436Y002069D01*
X022491Y002100D01*
X022545Y002135D01*
X022596Y002172D01*
X022645Y002213D01*
X022691Y002257D01*
X022735Y002303D01*
X022776Y002352D01*
X022814Y002403D01*
X022848Y002456D01*
X022880Y002512D01*
X022907Y002569D01*
X022932Y002628D01*
X022952Y002688D01*
X022970Y002749D01*
X022983Y002811D01*
X022992Y002874D01*
X022998Y002937D01*
X023000Y003001D01*
X022998Y003065D01*
X022992Y003128D01*
X022983Y003191D01*
X022969Y003253D01*
X022952Y003314D01*
X022931Y003374D01*
X022907Y003433D01*
X022879Y003490D01*
X022847Y003546D01*
X022812Y003599D01*
X022775Y003650D01*
X023924Y005493D02*
X023894Y005528D01*
X023863Y005561D01*
X023828Y005591D01*
X023792Y005618D01*
X023754Y005642D01*
X023714Y005664D01*
X023672Y005682D01*
X023629Y005698D01*
X023585Y005710D01*
X023541Y005718D01*
X023495Y005723D01*
X023450Y005725D01*
X023898Y005524D02*
X023929Y005486D01*
X023957Y005446D01*
X023981Y005404D01*
X024002Y005361D01*
X024019Y005315D01*
X024032Y005269D01*
X024042Y005221D01*
X024048Y005173D01*
X024050Y005125D01*
X023450Y004525D02*
X023403Y004527D01*
X023355Y004533D01*
X023309Y004542D01*
X023263Y004555D01*
X023219Y004571D01*
X023175Y004592D01*
X023134Y004615D01*
X023095Y004641D01*
X023058Y004671D01*
X023023Y004704D01*
X022991Y004739D01*
X022962Y004776D01*
X022850Y005125D02*
X022852Y005171D01*
X022857Y005217D01*
X022866Y005263D01*
X022878Y005307D01*
X022894Y005351D01*
X022913Y005393D01*
X022935Y005434D01*
X022961Y005472D01*
X022989Y005509D01*
X022850Y005125D02*
X022852Y005078D01*
X022857Y005031D01*
X022867Y004985D01*
X022880Y004939D01*
X022896Y004895D01*
X022916Y004852D01*
X022939Y004811D01*
X022965Y004772D01*
X022994Y004735D01*
X023450Y004525D02*
X023496Y004527D01*
X023542Y004532D01*
X023588Y004541D01*
X023633Y004553D01*
X023676Y004569D01*
X023718Y004588D01*
X023759Y004611D01*
X023798Y004636D01*
X023834Y004664D01*
X023869Y004695D01*
X023901Y004729D01*
X023930Y004765D01*
X023450Y005725D02*
X023405Y005723D01*
X023359Y005718D01*
X023315Y005710D01*
X023271Y005698D01*
X023228Y005682D01*
X023186Y005664D01*
X023146Y005642D01*
X023108Y005618D01*
X023072Y005591D01*
X023037Y005561D01*
X023006Y005528D01*
X022976Y005493D01*
X024050Y005125D02*
X024048Y005079D01*
X024043Y005033D01*
X024034Y004987D01*
X024022Y004943D01*
X024006Y004899D01*
X023987Y004857D01*
X023965Y004816D01*
X023939Y004778D01*
X023911Y004741D01*
X023450Y005525D02*
X023411Y005523D01*
X023372Y005517D01*
X023334Y005508D01*
X023297Y005495D01*
X023261Y005478D01*
X023228Y005458D01*
X023196Y005434D01*
X023167Y005408D01*
X023141Y005379D01*
X023117Y005347D01*
X023097Y005314D01*
X023080Y005278D01*
X023067Y005241D01*
X023058Y005203D01*
X023052Y005164D01*
X023050Y005125D01*
X023200Y005125D02*
X023202Y005155D01*
X023207Y005185D01*
X023216Y005214D01*
X023229Y005241D01*
X023244Y005267D01*
X023263Y005291D01*
X023284Y005312D01*
X023308Y005331D01*
X023334Y005346D01*
X023361Y005359D01*
X023390Y005368D01*
X023420Y005373D01*
X023450Y005375D01*
X023850Y005125D02*
X023848Y005086D01*
X023842Y005047D01*
X023833Y005009D01*
X023820Y004972D01*
X023803Y004936D01*
X023783Y004903D01*
X023759Y004871D01*
X023733Y004842D01*
X023704Y004816D01*
X023672Y004792D01*
X023639Y004772D01*
X023603Y004755D01*
X023566Y004742D01*
X023528Y004733D01*
X023489Y004727D01*
X023450Y004725D01*
X023450Y004875D02*
X023480Y004877D01*
X023510Y004882D01*
X023539Y004891D01*
X023566Y004904D01*
X023592Y004919D01*
X023616Y004938D01*
X023637Y004959D01*
X023656Y004983D01*
X023671Y005009D01*
X023684Y005036D01*
X023693Y005065D01*
X023698Y005095D01*
X023700Y005125D01*
X025600Y004075D02*
X025800Y004075D01*
X025700Y003975D02*
X025700Y004175D01*
X025700Y003775D02*
X025700Y003425D01*
X026200Y003425D01*
X026200Y003225D01*
X025200Y003225D01*
X025200Y003425D01*
X025700Y003425D01*
X024600Y003125D02*
X024602Y003191D01*
X024608Y003256D01*
X024618Y003321D01*
X024631Y003386D01*
X024649Y003449D01*
X024670Y003512D01*
X024695Y003572D01*
X024724Y003632D01*
X024756Y003689D01*
X024791Y003745D01*
X024830Y003798D01*
X024872Y003849D01*
X024916Y003897D01*
X024964Y003942D01*
X025014Y003985D01*
X025067Y004024D01*
X025122Y004061D01*
X025179Y004094D01*
X025238Y004123D01*
X025298Y004149D01*
X025360Y004171D01*
X025423Y004190D01*
X025487Y004204D01*
X025552Y004215D01*
X025618Y004222D01*
X025684Y004225D01*
X025749Y004224D01*
X025815Y004219D01*
X025880Y004210D01*
X025945Y004197D01*
X026008Y004181D01*
X026071Y004161D01*
X026132Y004136D01*
X026192Y004109D01*
X026250Y004078D01*
X026306Y004043D01*
X026360Y004005D01*
X026411Y003964D01*
X026460Y003920D01*
X026506Y003873D01*
X026550Y003824D01*
X026590Y003772D01*
X026627Y003717D01*
X026661Y003661D01*
X026691Y003602D01*
X026718Y003542D01*
X026741Y003481D01*
X026760Y003418D01*
X026776Y003354D01*
X026788Y003289D01*
X026796Y003224D01*
X026800Y003158D01*
X026800Y003092D01*
X026796Y003026D01*
X026788Y002961D01*
X026776Y002896D01*
X026760Y002832D01*
X026741Y002769D01*
X026718Y002708D01*
X026691Y002648D01*
X026661Y002589D01*
X026627Y002533D01*
X026590Y002478D01*
X026550Y002426D01*
X026506Y002377D01*
X026460Y002330D01*
X026411Y002286D01*
X026360Y002245D01*
X026306Y002207D01*
X026250Y002172D01*
X026192Y002141D01*
X026132Y002114D01*
X026071Y002089D01*
X026008Y002069D01*
X025945Y002053D01*
X025880Y002040D01*
X025815Y002031D01*
X025749Y002026D01*
X025684Y002025D01*
X025618Y002028D01*
X025552Y002035D01*
X025487Y002046D01*
X025423Y002060D01*
X025360Y002079D01*
X025298Y002101D01*
X025238Y002127D01*
X025179Y002156D01*
X025122Y002189D01*
X025067Y002226D01*
X025014Y002265D01*
X024964Y002308D01*
X024916Y002353D01*
X024872Y002401D01*
X024830Y002452D01*
X024791Y002505D01*
X024756Y002561D01*
X024724Y002618D01*
X024695Y002678D01*
X024670Y002738D01*
X024649Y002801D01*
X024631Y002864D01*
X024618Y002929D01*
X024608Y002994D01*
X024602Y003059D01*
X024600Y003125D01*
X025700Y002875D02*
X025700Y002475D01*
X029700Y003388D02*
X029700Y003475D01*
X029700Y003431D02*
X029917Y003431D01*
X029960Y003388D01*
X029960Y003344D01*
X029917Y003301D01*
X029960Y003596D02*
X029700Y003596D01*
X029700Y003726D01*
X029743Y003769D01*
X029830Y003769D01*
X029873Y003726D01*
X029873Y003596D01*
X029787Y003890D02*
X029700Y003977D01*
X029960Y003977D01*
X029960Y003890D02*
X029960Y004064D01*
X029200Y005875D02*
X028700Y005875D01*
X028450Y006125D01*
X028450Y006625D01*
X028700Y006875D01*
X028450Y007125D01*
X028450Y007625D01*
X028700Y007875D01*
X029200Y007875D01*
X029450Y007625D01*
X029450Y007125D01*
X029200Y006875D01*
X029450Y006625D01*
X029450Y006125D01*
X029200Y005875D01*
X029200Y006875D02*
X028700Y006875D01*
X027350Y006875D02*
X027300Y006925D01*
X027300Y008325D01*
X027350Y008375D01*
X027350Y008525D01*
X027348Y008542D01*
X027344Y008559D01*
X027337Y008575D01*
X027327Y008589D01*
X027314Y008602D01*
X027300Y008612D01*
X027284Y008619D01*
X027267Y008623D01*
X027250Y008625D01*
X026650Y008625D01*
X026633Y008623D01*
X026616Y008619D01*
X026600Y008612D01*
X026586Y008602D01*
X026573Y008589D01*
X026563Y008575D01*
X026556Y008559D01*
X026552Y008542D01*
X026550Y008525D01*
X026550Y008375D01*
X026600Y008325D01*
X026600Y006925D01*
X026550Y006875D01*
X026550Y006725D01*
X026552Y006708D01*
X026556Y006691D01*
X026563Y006675D01*
X026573Y006661D01*
X026586Y006648D01*
X026600Y006638D01*
X026616Y006631D01*
X026633Y006627D01*
X026650Y006625D01*
X027250Y006625D01*
X027267Y006627D01*
X027284Y006631D01*
X027300Y006638D01*
X027314Y006648D01*
X027327Y006661D01*
X027337Y006675D01*
X027344Y006691D01*
X027348Y006708D01*
X027350Y006725D01*
X027350Y006875D01*
X026350Y006875D02*
X026300Y006925D01*
X026300Y008325D01*
X026350Y008375D01*
X026350Y008525D01*
X026348Y008542D01*
X026344Y008559D01*
X026337Y008575D01*
X026327Y008589D01*
X026314Y008602D01*
X026300Y008612D01*
X026284Y008619D01*
X026267Y008623D01*
X026250Y008625D01*
X025650Y008625D01*
X025633Y008623D01*
X025616Y008619D01*
X025600Y008612D01*
X025586Y008602D01*
X025573Y008589D01*
X025563Y008575D01*
X025556Y008559D01*
X025552Y008542D01*
X025550Y008525D01*
X025550Y008375D01*
X025600Y008325D01*
X025600Y006925D01*
X025550Y006875D01*
X025550Y006725D01*
X025552Y006708D01*
X025556Y006691D01*
X025563Y006675D01*
X025573Y006661D01*
X025586Y006648D01*
X025600Y006638D01*
X025616Y006631D01*
X025633Y006627D01*
X025650Y006625D01*
X026250Y006625D01*
X026267Y006627D01*
X026284Y006631D01*
X026300Y006638D01*
X026314Y006648D01*
X026327Y006661D01*
X026337Y006675D01*
X026344Y006691D01*
X026348Y006708D01*
X026350Y006725D01*
X026350Y006875D01*
X025350Y006875D02*
X025300Y006925D01*
X025300Y008325D01*
X025350Y008375D01*
X025350Y008525D01*
X025348Y008542D01*
X025344Y008559D01*
X025337Y008575D01*
X025327Y008589D01*
X025314Y008602D01*
X025300Y008612D01*
X025284Y008619D01*
X025267Y008623D01*
X025250Y008625D01*
X024650Y008625D01*
X024633Y008623D01*
X024616Y008619D01*
X024600Y008612D01*
X024586Y008602D01*
X024573Y008589D01*
X024563Y008575D01*
X024556Y008559D01*
X024552Y008542D01*
X024550Y008525D01*
X024550Y008375D01*
X024600Y008325D01*
X024600Y006925D01*
X024550Y006875D01*
X024550Y006725D01*
X024552Y006708D01*
X024556Y006691D01*
X024563Y006675D01*
X024573Y006661D01*
X024586Y006648D01*
X024600Y006638D01*
X024616Y006631D01*
X024633Y006627D01*
X024650Y006625D01*
X025250Y006625D01*
X025267Y006627D01*
X025284Y006631D01*
X025300Y006638D01*
X025314Y006648D01*
X025327Y006661D01*
X025337Y006675D01*
X025344Y006691D01*
X025348Y006708D01*
X025350Y006725D01*
X025350Y006875D01*
X024350Y006875D02*
X024300Y006925D01*
X024300Y008325D01*
X024350Y008375D01*
X024350Y008525D01*
X024348Y008542D01*
X024344Y008559D01*
X024337Y008575D01*
X024327Y008589D01*
X024314Y008602D01*
X024300Y008612D01*
X024284Y008619D01*
X024267Y008623D01*
X024250Y008625D01*
X023650Y008625D01*
X023633Y008623D01*
X023616Y008619D01*
X023600Y008612D01*
X023586Y008602D01*
X023573Y008589D01*
X023563Y008575D01*
X023556Y008559D01*
X023552Y008542D01*
X023550Y008525D01*
X023550Y008375D01*
X023600Y008325D01*
X023600Y006925D01*
X023550Y006875D01*
X023550Y006725D01*
X023552Y006708D01*
X023556Y006691D01*
X023563Y006675D01*
X023573Y006661D01*
X023586Y006648D01*
X023600Y006638D01*
X023616Y006631D01*
X023633Y006627D01*
X023650Y006625D01*
X024250Y006625D01*
X024267Y006627D01*
X024284Y006631D01*
X024300Y006638D01*
X024314Y006648D01*
X024327Y006661D01*
X024337Y006675D01*
X024344Y006691D01*
X024348Y006708D01*
X024350Y006725D01*
X024350Y006875D01*
X023350Y006875D02*
X023300Y006925D01*
X023300Y008325D01*
X023350Y008375D01*
X023350Y008525D01*
X023348Y008542D01*
X023344Y008559D01*
X023337Y008575D01*
X023327Y008589D01*
X023314Y008602D01*
X023300Y008612D01*
X023284Y008619D01*
X023267Y008623D01*
X023250Y008625D01*
X022650Y008625D01*
X022633Y008623D01*
X022616Y008619D01*
X022600Y008612D01*
X022586Y008602D01*
X022573Y008589D01*
X022563Y008575D01*
X022556Y008559D01*
X022552Y008542D01*
X022550Y008525D01*
X022550Y008375D01*
X022600Y008325D01*
X022600Y006925D01*
X022550Y006875D01*
X022550Y006725D01*
X022552Y006708D01*
X022556Y006691D01*
X022563Y006675D01*
X022573Y006661D01*
X022586Y006648D01*
X022600Y006638D01*
X022616Y006631D01*
X022633Y006627D01*
X022650Y006625D01*
X023250Y006625D01*
X023267Y006627D01*
X023284Y006631D01*
X023300Y006638D01*
X023314Y006648D01*
X023327Y006661D01*
X023337Y006675D01*
X023344Y006691D01*
X023348Y006708D01*
X023350Y006725D01*
X023350Y006875D01*
X022350Y006875D02*
X022300Y006925D01*
X022300Y008325D01*
X022350Y008375D01*
X022350Y008525D01*
X022348Y008542D01*
X022344Y008559D01*
X022337Y008575D01*
X022327Y008589D01*
X022314Y008602D01*
X022300Y008612D01*
X022284Y008619D01*
X022267Y008623D01*
X022250Y008625D01*
X021650Y008625D01*
X021633Y008623D01*
X021616Y008619D01*
X021600Y008612D01*
X021586Y008602D01*
X021573Y008589D01*
X021563Y008575D01*
X021556Y008559D01*
X021552Y008542D01*
X021550Y008525D01*
X021550Y008375D01*
X021600Y008325D01*
X021600Y006925D01*
X021550Y006875D01*
X021550Y006725D01*
X021552Y006708D01*
X021556Y006691D01*
X021563Y006675D01*
X021573Y006661D01*
X021586Y006648D01*
X021600Y006638D01*
X021616Y006631D01*
X021633Y006627D01*
X021650Y006625D01*
X022250Y006625D01*
X022267Y006627D01*
X022284Y006631D01*
X022300Y006638D01*
X022314Y006648D01*
X022327Y006661D01*
X022337Y006675D01*
X022344Y006691D01*
X022348Y006708D01*
X022350Y006725D01*
X022350Y006875D01*
X021350Y006875D02*
X021300Y006925D01*
X021300Y008325D01*
X021350Y008375D01*
X021350Y008525D01*
X021348Y008542D01*
X021344Y008559D01*
X021337Y008575D01*
X021327Y008589D01*
X021314Y008602D01*
X021300Y008612D01*
X021284Y008619D01*
X021267Y008623D01*
X021250Y008625D01*
X020650Y008625D01*
X020633Y008623D01*
X020616Y008619D01*
X020600Y008612D01*
X020586Y008602D01*
X020573Y008589D01*
X020563Y008575D01*
X020556Y008559D01*
X020552Y008542D01*
X020550Y008525D01*
X020550Y008375D01*
X020600Y008325D01*
X020600Y006925D01*
X020550Y006875D01*
X020550Y006725D01*
X020552Y006708D01*
X020556Y006691D01*
X020563Y006675D01*
X020573Y006661D01*
X020586Y006648D01*
X020600Y006638D01*
X020616Y006631D01*
X020633Y006627D01*
X020650Y006625D01*
X021250Y006625D01*
X021267Y006627D01*
X021284Y006631D01*
X021300Y006638D01*
X021314Y006648D01*
X021327Y006661D01*
X021337Y006675D01*
X021344Y006691D01*
X021348Y006708D01*
X021350Y006725D01*
X021350Y006875D01*
X020100Y007475D02*
X020100Y007625D01*
X020050Y007675D01*
X020050Y009075D01*
X020100Y009125D01*
X020100Y009275D01*
X020098Y009292D01*
X020094Y009309D01*
X020087Y009325D01*
X020077Y009339D01*
X020064Y009352D01*
X020050Y009362D01*
X020034Y009369D01*
X020017Y009373D01*
X020000Y009375D01*
X019400Y009375D01*
X019383Y009373D01*
X019366Y009369D01*
X019350Y009362D01*
X019336Y009352D01*
X019323Y009339D01*
X019313Y009325D01*
X019306Y009309D01*
X019302Y009292D01*
X019300Y009275D01*
X019300Y009125D01*
X019350Y009075D01*
X019350Y007675D01*
X019300Y007625D01*
X019300Y007475D01*
X019302Y007458D01*
X019306Y007441D01*
X019313Y007425D01*
X019323Y007411D01*
X019336Y007398D01*
X019350Y007388D01*
X019366Y007381D01*
X019383Y007377D01*
X019400Y007375D01*
X020000Y007375D01*
X020017Y007377D01*
X020034Y007381D01*
X020050Y007388D01*
X020064Y007398D01*
X020077Y007411D01*
X020087Y007425D01*
X020094Y007441D01*
X020098Y007458D01*
X020100Y007475D01*
X021898Y005524D02*
X021929Y005486D01*
X021957Y005446D01*
X021981Y005404D01*
X022002Y005361D01*
X022019Y005315D01*
X022032Y005269D01*
X022042Y005221D01*
X022048Y005173D01*
X022050Y005125D01*
X021450Y004525D02*
X021403Y004527D01*
X021355Y004533D01*
X021309Y004542D01*
X021263Y004555D01*
X021219Y004571D01*
X021175Y004592D01*
X021134Y004615D01*
X021095Y004641D01*
X021058Y004671D01*
X021023Y004704D01*
X020991Y004739D01*
X020962Y004776D01*
X021450Y005725D02*
X021495Y005723D01*
X021541Y005718D01*
X021585Y005710D01*
X021629Y005698D01*
X021672Y005682D01*
X021714Y005664D01*
X021754Y005642D01*
X021792Y005618D01*
X021828Y005591D01*
X021863Y005561D01*
X021894Y005528D01*
X021924Y005493D01*
X020850Y005125D02*
X020852Y005078D01*
X020857Y005031D01*
X020867Y004985D01*
X020880Y004939D01*
X020896Y004895D01*
X020916Y004852D01*
X020939Y004811D01*
X020965Y004772D01*
X020994Y004735D01*
X020850Y005125D02*
X020852Y005171D01*
X020857Y005217D01*
X020866Y005263D01*
X020878Y005307D01*
X020894Y005351D01*
X020913Y005393D01*
X020935Y005434D01*
X020961Y005472D01*
X020989Y005509D01*
X021450Y004525D02*
X021496Y004527D01*
X021542Y004532D01*
X021588Y004541D01*
X021633Y004553D01*
X021676Y004569D01*
X021718Y004588D01*
X021759Y004611D01*
X021798Y004636D01*
X021834Y004664D01*
X021869Y004695D01*
X021901Y004729D01*
X021930Y004765D01*
X021450Y005725D02*
X021405Y005723D01*
X021359Y005718D01*
X021315Y005710D01*
X021271Y005698D01*
X021228Y005682D01*
X021186Y005664D01*
X021146Y005642D01*
X021108Y005618D01*
X021072Y005591D01*
X021037Y005561D01*
X021006Y005528D01*
X020976Y005493D01*
X022050Y005125D02*
X022048Y005079D01*
X022043Y005033D01*
X022034Y004987D01*
X022022Y004943D01*
X022006Y004899D01*
X021987Y004857D01*
X021965Y004816D01*
X021939Y004778D01*
X021911Y004741D01*
X021450Y005525D02*
X021411Y005523D01*
X021372Y005517D01*
X021334Y005508D01*
X021297Y005495D01*
X021261Y005478D01*
X021228Y005458D01*
X021196Y005434D01*
X021167Y005408D01*
X021141Y005379D01*
X021117Y005347D01*
X021097Y005314D01*
X021080Y005278D01*
X021067Y005241D01*
X021058Y005203D01*
X021052Y005164D01*
X021050Y005125D01*
X021200Y005125D02*
X021202Y005155D01*
X021207Y005185D01*
X021216Y005214D01*
X021229Y005241D01*
X021244Y005267D01*
X021263Y005291D01*
X021284Y005312D01*
X021308Y005331D01*
X021334Y005346D01*
X021361Y005359D01*
X021390Y005368D01*
X021420Y005373D01*
X021450Y005375D01*
X021850Y005125D02*
X021848Y005086D01*
X021842Y005047D01*
X021833Y005009D01*
X021820Y004972D01*
X021803Y004936D01*
X021783Y004903D01*
X021759Y004871D01*
X021733Y004842D01*
X021704Y004816D01*
X021672Y004792D01*
X021639Y004772D01*
X021603Y004755D01*
X021566Y004742D01*
X021528Y004733D01*
X021489Y004727D01*
X021450Y004725D01*
X021450Y004875D02*
X021480Y004877D01*
X021510Y004882D01*
X021539Y004891D01*
X021566Y004904D01*
X021592Y004919D01*
X021616Y004938D01*
X021637Y004959D01*
X021656Y004983D01*
X021671Y005009D01*
X021684Y005036D01*
X021693Y005065D01*
X021698Y005095D01*
X021700Y005125D01*
X028450Y008125D02*
X028700Y007875D01*
X028450Y008125D02*
X028450Y008625D01*
X028700Y008875D01*
X028450Y009125D01*
X028450Y009625D01*
X028700Y009875D01*
X028450Y010125D01*
X028450Y010625D01*
X028700Y010875D01*
X029200Y010875D01*
X029450Y010625D01*
X029450Y010125D01*
X029200Y009875D01*
X029450Y009625D01*
X029450Y009125D01*
X029200Y008875D01*
X029450Y008625D01*
X029450Y008125D01*
X029200Y007875D01*
X029200Y008875D02*
X028700Y008875D01*
X028700Y009875D02*
X029200Y009875D01*
X029200Y010875D02*
X029450Y011125D01*
X029450Y011625D01*
X029200Y011875D01*
X029450Y012125D01*
X029450Y012625D01*
X029200Y012875D01*
X028700Y012875D01*
X028450Y012625D01*
X028450Y012125D01*
X028700Y011875D01*
X029200Y011875D01*
X028700Y011875D02*
X028450Y011625D01*
X028450Y011125D01*
X028700Y010875D01*
X020525Y018350D02*
X020525Y019150D01*
X020523Y019167D01*
X020519Y019184D01*
X020512Y019200D01*
X020502Y019214D01*
X020489Y019227D01*
X020475Y019237D01*
X020459Y019244D01*
X020442Y019248D01*
X020425Y019250D01*
X018725Y019250D01*
X018708Y019248D01*
X018691Y019244D01*
X018675Y019237D01*
X018661Y019227D01*
X018648Y019214D01*
X018638Y019200D01*
X018631Y019184D01*
X018627Y019167D01*
X018625Y019150D01*
X018625Y018350D01*
X018627Y018333D01*
X018631Y018316D01*
X018638Y018300D01*
X018648Y018286D01*
X018661Y018273D01*
X018675Y018263D01*
X018691Y018256D01*
X018708Y018252D01*
X018725Y018250D01*
X020425Y018250D01*
X020442Y018252D01*
X020459Y018256D01*
X020475Y018263D01*
X020489Y018273D01*
X020502Y018286D01*
X020512Y018300D01*
X020519Y018316D01*
X020523Y018333D01*
X020525Y018350D01*
X019875Y018750D02*
X019725Y018750D01*
X019675Y018750D01*
X019475Y018750D02*
X019425Y018750D01*
X019275Y018750D01*
X017475Y019250D02*
X016725Y019250D01*
X016723Y019211D01*
X016717Y019172D01*
X016708Y019134D01*
X016695Y019097D01*
X016678Y019061D01*
X016658Y019028D01*
X016634Y018996D01*
X016608Y018967D01*
X016579Y018941D01*
X016547Y018917D01*
X016514Y018897D01*
X016478Y018880D01*
X016441Y018867D01*
X016403Y018858D01*
X016364Y018852D01*
X016325Y018850D01*
X016286Y018852D01*
X016247Y018858D01*
X016209Y018867D01*
X016172Y018880D01*
X016136Y018897D01*
X016103Y018917D01*
X016071Y018941D01*
X016042Y018967D01*
X016016Y018996D01*
X015992Y019028D01*
X015972Y019061D01*
X015955Y019097D01*
X015942Y019134D01*
X015933Y019172D01*
X015927Y019211D01*
X015925Y019250D01*
X015175Y019250D01*
X015175Y015250D01*
X017475Y015250D01*
X017475Y019250D01*
X013950Y018750D02*
X013700Y018500D01*
X013300Y018800D02*
X013150Y018800D01*
X013150Y017700D01*
X013150Y017650D01*
X010150Y017650D01*
X010133Y017652D01*
X010116Y017656D01*
X010100Y017663D01*
X010086Y017673D01*
X010073Y017686D01*
X010063Y017700D01*
X010056Y017716D01*
X010052Y017733D01*
X010050Y017750D01*
X010050Y018750D01*
X010052Y018767D01*
X010056Y018784D01*
X010063Y018800D01*
X010073Y018814D01*
X010086Y018827D01*
X010100Y018837D01*
X010116Y018844D01*
X010133Y018848D01*
X010150Y018850D01*
X013150Y018850D01*
X013150Y018800D01*
X013300Y018800D02*
X013300Y017700D01*
X013150Y017700D01*
X013700Y018000D02*
X013950Y017750D01*
X012250Y018250D02*
X012050Y018250D01*
X012050Y018550D01*
X011900Y018550D02*
X011750Y018550D01*
X011750Y017950D01*
X011900Y017950D01*
X011900Y018550D01*
X011600Y018550D02*
X011600Y018250D01*
X011400Y018250D01*
X011600Y018250D02*
X011600Y017950D01*
X012050Y017950D02*
X012050Y018250D01*
X015425Y014775D02*
X015575Y014775D01*
X015625Y014725D01*
X017025Y014725D01*
X017075Y014775D01*
X017225Y014775D01*
X017242Y014773D01*
X017259Y014769D01*
X017275Y014762D01*
X017289Y014752D01*
X017302Y014739D01*
X017312Y014725D01*
X017319Y014709D01*
X017323Y014692D01*
X017325Y014675D01*
X017325Y014075D01*
X017323Y014058D01*
X017319Y014041D01*
X017312Y014025D01*
X017302Y014011D01*
X017289Y013998D01*
X017275Y013988D01*
X017259Y013981D01*
X017242Y013977D01*
X017225Y013975D01*
X017075Y013975D01*
X017025Y014025D01*
X015625Y014025D01*
X015575Y013975D01*
X015425Y013975D01*
X015408Y013977D01*
X015391Y013981D01*
X015375Y013988D01*
X015361Y013998D01*
X015348Y014011D01*
X015338Y014025D01*
X015331Y014041D01*
X015327Y014058D01*
X015325Y014075D01*
X015325Y014675D01*
X015327Y014692D01*
X015331Y014709D01*
X015338Y014725D01*
X015348Y014739D01*
X015361Y014752D01*
X015375Y014762D01*
X015391Y014769D01*
X015408Y014773D01*
X015425Y014775D01*
X015425Y013775D02*
X015575Y013775D01*
X015625Y013725D01*
X017025Y013725D01*
X017075Y013775D01*
X017225Y013775D01*
X017242Y013773D01*
X017259Y013769D01*
X017275Y013762D01*
X017289Y013752D01*
X017302Y013739D01*
X017312Y013725D01*
X017319Y013709D01*
X017323Y013692D01*
X017325Y013675D01*
X017325Y013075D01*
X017323Y013058D01*
X017319Y013041D01*
X017312Y013025D01*
X017302Y013011D01*
X017289Y012998D01*
X017275Y012988D01*
X017259Y012981D01*
X017242Y012977D01*
X017225Y012975D01*
X017075Y012975D01*
X017025Y013025D01*
X015625Y013025D01*
X015575Y012975D01*
X015425Y012975D01*
X015408Y012977D01*
X015391Y012981D01*
X015375Y012988D01*
X015361Y012998D01*
X015348Y013011D01*
X015338Y013025D01*
X015331Y013041D01*
X015327Y013058D01*
X015325Y013075D01*
X015325Y013675D01*
X015327Y013692D01*
X015331Y013709D01*
X015338Y013725D01*
X015348Y013739D01*
X015361Y013752D01*
X015375Y013762D01*
X015391Y013769D01*
X015408Y013773D01*
X015425Y013775D01*
X016175Y012875D02*
X014475Y012875D01*
X014458Y012873D01*
X014441Y012869D01*
X014425Y012862D01*
X014411Y012852D01*
X014398Y012839D01*
X014388Y012825D01*
X014381Y012809D01*
X014377Y012792D01*
X014375Y012775D01*
X014375Y011975D01*
X014377Y011958D01*
X014381Y011941D01*
X014388Y011925D01*
X014398Y011911D01*
X014411Y011898D01*
X014425Y011888D01*
X014441Y011881D01*
X014458Y011877D01*
X014475Y011875D01*
X016175Y011875D01*
X016192Y011877D01*
X016209Y011881D01*
X016225Y011888D01*
X016239Y011898D01*
X016252Y011911D01*
X016262Y011925D01*
X016269Y011941D01*
X016273Y011958D01*
X016275Y011975D01*
X016275Y012775D01*
X016273Y012792D01*
X016269Y012809D01*
X016262Y012825D01*
X016252Y012839D01*
X016239Y012852D01*
X016225Y012862D01*
X016209Y012869D01*
X016192Y012873D01*
X016175Y012875D01*
X015625Y012375D02*
X015475Y012375D01*
X015425Y012375D01*
X015225Y012375D02*
X015175Y012375D01*
X015025Y012375D01*
X005195Y016000D02*
X002892Y016500D01*
X002892Y017000D01*
X005195Y017500D01*
X005195Y018500D02*
X002892Y019000D01*
X002892Y019500D01*
X005195Y020000D01*
X022985Y020230D02*
X022985Y020360D01*
X023028Y020403D01*
X023072Y020403D01*
X023115Y020360D01*
X023115Y020230D01*
X023245Y020230D02*
X023245Y020360D01*
X023202Y020403D01*
X023158Y020403D01*
X023115Y020360D01*
X023072Y020525D02*
X022985Y020611D01*
X023245Y020611D01*
X023245Y020525D02*
X023245Y020698D01*
X023245Y020230D02*
X022985Y020230D01*
X009261Y002921D02*
X009261Y002280D01*
D11*
X011425Y001675D02*
X011500Y001750D01*
X011650Y001750D01*
X011725Y001675D01*
X011725Y001600D01*
X011650Y001525D01*
X011725Y001450D01*
X011725Y001375D01*
X011650Y001300D01*
X011500Y001300D01*
X011425Y001375D01*
X011575Y001525D02*
X011650Y001525D01*
X011675Y003050D02*
X011675Y003500D01*
X011525Y003350D01*
X011525Y003050D02*
X011825Y003050D01*
X011716Y003803D02*
X002818Y003764D01*
X002818Y004197D01*
X002857Y004276D01*
X002818Y004197D02*
X002818Y013843D01*
X002936Y013882D01*
X002818Y013843D02*
X002818Y014197D01*
X012700Y014197D01*
X012700Y004827D01*
X011716Y004827D01*
X011716Y003803D01*
X014625Y003375D02*
X014700Y003450D01*
X014850Y003450D01*
X014925Y003375D01*
X014925Y003300D01*
X014625Y003000D01*
X014925Y003000D01*
X014850Y001750D02*
X014625Y001525D01*
X014925Y001525D01*
X014850Y001300D02*
X014850Y001750D01*
X019100Y004975D02*
X019175Y004900D01*
X019100Y004975D02*
X019100Y005125D01*
X019175Y005200D01*
X019250Y005200D01*
X019550Y004900D01*
X019550Y005200D01*
X018822Y004815D02*
X018842Y004756D01*
X018865Y004699D01*
X018892Y004642D01*
X018923Y004588D01*
X018956Y004535D01*
X018993Y004485D01*
X019032Y004436D01*
X019075Y004391D01*
X019120Y004347D01*
X019167Y004307D01*
X019217Y004269D01*
X019269Y004234D01*
X019323Y004203D01*
X019378Y004175D01*
X019435Y004150D01*
X019494Y004129D01*
X019554Y004111D01*
X019615Y004096D01*
X019676Y004086D01*
X019738Y004079D01*
X019800Y004075D01*
X019863Y004076D01*
X019925Y004080D01*
X019925Y004238D01*
X019925Y005012D01*
X019925Y005238D01*
X019925Y006012D01*
X019925Y006170D01*
X019800Y005900D02*
X019800Y005600D01*
X019800Y005750D02*
X019350Y005750D01*
X019500Y005600D01*
X018822Y005435D02*
X018805Y005374D01*
X018792Y005313D01*
X018783Y005250D01*
X018777Y005188D01*
X018775Y005125D01*
X018777Y005062D01*
X018783Y005000D01*
X018792Y004937D01*
X018805Y004876D01*
X018822Y004815D01*
X019350Y004525D02*
X019425Y004600D01*
X019500Y004600D01*
X019575Y004525D01*
X019650Y004600D01*
X019725Y004600D01*
X019800Y004525D01*
X019800Y004375D01*
X019725Y004300D01*
X019575Y004450D02*
X019575Y004525D01*
X019350Y004525D02*
X019350Y004375D01*
X019425Y004300D01*
X020475Y004300D02*
X020475Y005950D01*
X020475Y004300D02*
X020427Y004265D01*
X020377Y004232D01*
X020325Y004201D01*
X020271Y004174D01*
X020216Y004150D01*
X020159Y004130D01*
X020102Y004112D01*
X020044Y004098D01*
X019985Y004087D01*
X019925Y004080D01*
X020850Y004100D02*
X020850Y003800D01*
X020850Y004025D02*
X021150Y004025D01*
X021150Y004100D02*
X021150Y003800D01*
X021310Y003875D02*
X021385Y003800D01*
X021536Y003800D01*
X021611Y003875D01*
X021771Y003800D02*
X021771Y004250D01*
X021611Y004175D02*
X021536Y004250D01*
X021385Y004250D01*
X021310Y004175D01*
X021310Y003875D01*
X021150Y004100D02*
X021000Y004250D01*
X020850Y004100D01*
X021771Y003950D02*
X022071Y004250D01*
X021846Y004025D02*
X022071Y003800D01*
X022850Y003875D02*
X022850Y004175D01*
X022925Y004250D01*
X023075Y004250D01*
X023150Y004175D01*
X023310Y004250D02*
X023310Y003800D01*
X023611Y003800D01*
X023771Y003800D02*
X023771Y004250D01*
X023846Y004025D02*
X024071Y003800D01*
X023771Y003950D02*
X024071Y004250D01*
X023150Y003875D02*
X023075Y003800D01*
X022925Y003800D01*
X022850Y003875D01*
X020475Y005950D02*
X020424Y005987D01*
X020371Y006022D01*
X020315Y006054D01*
X020258Y006082D01*
X020199Y006106D01*
X020139Y006127D01*
X020078Y006144D01*
X020016Y006158D01*
X019953Y006167D01*
X019890Y006173D01*
X019826Y006175D01*
X019762Y006173D01*
X019699Y006167D01*
X019636Y006158D01*
X019574Y006145D01*
X019513Y006127D01*
X019453Y006107D01*
X019394Y006082D01*
X019337Y006055D01*
X019281Y006023D01*
X019228Y005989D01*
X019177Y005951D01*
X019128Y005910D01*
X019082Y005866D01*
X019038Y005820D01*
X018997Y005771D01*
X018960Y005720D01*
X018925Y005666D01*
X018894Y005611D01*
X018866Y005554D01*
X018842Y005495D01*
X018822Y005435D01*
X016450Y008298D02*
X016450Y008598D01*
X016600Y008758D02*
X016300Y008758D01*
X016225Y008833D01*
X016225Y008984D01*
X016300Y009059D01*
X016600Y008758D01*
X016675Y008833D01*
X016675Y008984D01*
X016600Y009059D01*
X016300Y009059D01*
X016225Y009219D02*
X016450Y009219D01*
X016375Y009369D01*
X016375Y009444D01*
X016450Y009519D01*
X016600Y009519D01*
X016675Y009444D01*
X016675Y009294D01*
X016600Y009219D01*
X016225Y009219D02*
X016225Y009519D01*
X016300Y009679D02*
X016225Y009754D01*
X016225Y009904D01*
X016300Y009979D01*
X016600Y009679D01*
X016675Y009754D01*
X016675Y009904D01*
X016600Y009979D01*
X016300Y009979D01*
X016225Y010140D02*
X016675Y010440D01*
X016225Y010440D01*
X016225Y010140D02*
X016675Y010140D01*
X016600Y009679D02*
X016300Y009679D01*
X016225Y008523D02*
X016450Y008298D01*
X016675Y008523D02*
X016225Y008523D01*
X016100Y015913D02*
X016100Y016138D01*
X016175Y016213D01*
X016475Y016213D01*
X016550Y016138D01*
X016550Y015913D01*
X016100Y015913D01*
X016175Y016373D02*
X016250Y016373D01*
X016325Y016448D01*
X016325Y016598D01*
X016400Y016673D01*
X016475Y016673D01*
X016550Y016598D01*
X016550Y016448D01*
X016475Y016373D01*
X016175Y016373D02*
X016100Y016448D01*
X016100Y016598D01*
X016175Y016673D01*
X016250Y016833D02*
X016100Y016984D01*
X016550Y016984D01*
X016550Y017134D02*
X016550Y016833D01*
X016475Y017294D02*
X016550Y017369D01*
X016550Y017519D01*
X016475Y017594D01*
X016400Y017594D01*
X016325Y017519D01*
X016325Y017444D01*
X016325Y017519D02*
X016250Y017594D01*
X016175Y017594D01*
X016100Y017519D01*
X016100Y017369D01*
X016175Y017294D01*
X016175Y017754D02*
X016100Y017829D01*
X016100Y017979D01*
X016175Y018054D01*
X016475Y017754D01*
X016550Y017829D01*
X016550Y017979D01*
X016475Y018054D01*
X016175Y018054D01*
X016100Y018215D02*
X016100Y018515D01*
X016175Y018515D01*
X016475Y018215D01*
X016550Y018215D01*
X016475Y017754D02*
X016175Y017754D01*
X016193Y019375D02*
X016042Y019375D01*
X015967Y019450D01*
X015807Y019450D02*
X015732Y019375D01*
X015582Y019375D01*
X015507Y019450D01*
X015507Y019750D01*
X015582Y019825D01*
X015732Y019825D01*
X015807Y019750D01*
X015967Y019750D02*
X016042Y019825D01*
X016193Y019825D01*
X016268Y019750D01*
X016268Y019675D01*
X016193Y019600D01*
X016268Y019525D01*
X016268Y019450D01*
X016193Y019375D01*
X016193Y019600D02*
X016117Y019600D01*
X015350Y019375D02*
X015200Y019375D01*
X015275Y019375D02*
X015275Y019825D01*
X015200Y019825D02*
X015350Y019825D01*
X012865Y017475D02*
X012865Y017025D01*
X012715Y017025D02*
X013015Y017025D01*
X012715Y017325D02*
X012865Y017475D01*
X012554Y017400D02*
X012554Y017100D01*
X012479Y017025D01*
X012329Y017025D01*
X012254Y017100D01*
X012254Y017400D01*
X012329Y017475D01*
X012479Y017475D01*
X012554Y017400D01*
X012404Y017175D02*
X012554Y017025D01*
X002936Y013882D02*
X003040Y013408D01*
X003133Y012932D01*
X003215Y012454D01*
X003285Y011975D01*
X003344Y011494D01*
X003392Y011011D01*
X003428Y010528D01*
X003452Y010043D01*
X003466Y009559D01*
X003467Y009074D01*
X003458Y008589D01*
X003436Y008105D01*
X003404Y007621D01*
X003360Y007138D01*
X003304Y006657D01*
X003238Y006176D01*
X003159Y005698D01*
X003070Y005222D01*
X002969Y004747D01*
X002857Y004276D01*
X027755Y006020D02*
X027755Y006170D01*
X027755Y006095D02*
X028130Y006095D01*
X028205Y006020D01*
X028205Y005945D01*
X028130Y005870D01*
X028130Y006330D02*
X027830Y006330D01*
X027755Y006405D01*
X027755Y006556D01*
X027830Y006631D01*
X028130Y006631D01*
X028205Y006556D01*
X028205Y006405D01*
X028130Y006330D01*
X027830Y006791D02*
X027755Y006791D01*
X027830Y006791D02*
X027980Y006941D01*
X028205Y006941D01*
X027980Y006941D02*
X027830Y007091D01*
X027755Y007091D01*
X027830Y007251D02*
X027755Y007326D01*
X027755Y007476D01*
X027830Y007551D01*
X027980Y007476D02*
X028055Y007551D01*
X028130Y007551D01*
X028205Y007476D01*
X028205Y007326D01*
X028130Y007251D01*
X027980Y007326D02*
X027980Y007476D01*
X027980Y007326D02*
X027905Y007251D01*
X027830Y007251D01*
X027755Y007712D02*
X027755Y008012D01*
X027755Y007862D02*
X028205Y007862D01*
X028205Y008172D02*
X028205Y008322D01*
X028205Y008247D02*
X027755Y008247D01*
X027755Y008172D02*
X027755Y008322D01*
X027830Y008479D02*
X027755Y008554D01*
X027755Y008704D01*
X027830Y008779D01*
X027755Y008939D02*
X028205Y008939D01*
X028055Y008939D02*
X027755Y009240D01*
X027980Y009014D02*
X028205Y009240D01*
X028130Y008779D02*
X028205Y008704D01*
X028205Y008554D01*
X028130Y008479D01*
X027830Y008479D01*
D12*
X028950Y008375D03*
X028950Y007375D03*
X028950Y006375D03*
X028950Y003625D03*
X028950Y002625D03*
X028950Y009375D03*
X028950Y010375D03*
X028950Y011375D03*
X028950Y012375D03*
D13*
X019675Y018450D02*
X019675Y018750D01*
X019675Y019050D01*
X019475Y019050D02*
X019475Y018750D01*
X019475Y018450D01*
X015425Y012675D02*
X015425Y012375D01*
X015425Y012075D01*
X015225Y012075D02*
X015225Y012375D01*
X015225Y012675D01*
X007943Y015087D02*
X007943Y020913D01*
X002313Y020913D01*
X002313Y015087D01*
X007943Y015087D01*
X020830Y005625D02*
X020830Y004625D01*
X021450Y004325D02*
X021504Y004327D01*
X021558Y004332D01*
X021611Y004341D01*
X021664Y004354D01*
X021715Y004370D01*
X021765Y004390D01*
X021814Y004413D01*
X021862Y004439D01*
X021907Y004468D01*
X021950Y004501D01*
X021991Y004536D01*
X022030Y004574D01*
X022066Y004614D01*
X022099Y004657D01*
X022129Y004702D01*
X022156Y004749D01*
X022830Y004625D02*
X022830Y005625D01*
X024131Y005544D02*
X024159Y005496D01*
X024183Y005447D01*
X024203Y005395D01*
X024220Y005343D01*
X024233Y005289D01*
X024242Y005235D01*
X024248Y005180D01*
X024250Y005125D01*
X024145Y005522D02*
X024115Y005570D01*
X024082Y005615D01*
X024046Y005658D01*
X024008Y005699D01*
X023966Y005736D01*
X023922Y005771D01*
X023876Y005802D01*
X023827Y005831D01*
X023777Y005855D01*
X023725Y005876D01*
X023671Y005894D01*
X023617Y005907D01*
X023562Y005917D01*
X023506Y005923D01*
X023450Y005925D01*
X024250Y005125D02*
X024248Y005069D01*
X024242Y005012D01*
X024232Y004957D01*
X024218Y004902D01*
X024201Y004849D01*
X024179Y004796D01*
X024154Y004746D01*
X023450Y004325D02*
X023396Y004327D01*
X023343Y004332D01*
X023289Y004341D01*
X023237Y004354D01*
X023186Y004370D01*
X023135Y004390D01*
X023086Y004412D01*
X023039Y004438D01*
X022994Y004468D01*
X022951Y004500D01*
X022910Y004535D01*
X022871Y004573D01*
X022835Y004613D01*
X023450Y004325D02*
X023504Y004327D01*
X023558Y004332D01*
X023611Y004341D01*
X023664Y004354D01*
X023715Y004370D01*
X023765Y004390D01*
X023814Y004413D01*
X023862Y004439D01*
X023907Y004468D01*
X023950Y004501D01*
X023991Y004536D01*
X024030Y004574D01*
X024066Y004614D01*
X024099Y004657D01*
X024129Y004702D01*
X024156Y004749D01*
X023450Y005925D02*
X023397Y005923D01*
X023343Y005918D01*
X023291Y005909D01*
X023239Y005897D01*
X023188Y005881D01*
X023138Y005862D01*
X023089Y005839D01*
X023042Y005813D01*
X022997Y005785D01*
X022954Y005753D01*
X022914Y005719D01*
X022875Y005681D01*
X022839Y005642D01*
X022145Y005522D02*
X022115Y005570D01*
X022082Y005615D01*
X022046Y005658D01*
X022008Y005699D01*
X021966Y005736D01*
X021922Y005771D01*
X021876Y005802D01*
X021827Y005831D01*
X021777Y005855D01*
X021725Y005876D01*
X021671Y005894D01*
X021617Y005907D01*
X021562Y005917D01*
X021506Y005923D01*
X021450Y005925D01*
X022131Y005544D02*
X022159Y005496D01*
X022183Y005447D01*
X022203Y005395D01*
X022220Y005343D01*
X022233Y005289D01*
X022242Y005235D01*
X022248Y005180D01*
X022250Y005125D01*
X022248Y005069D01*
X022242Y005012D01*
X022232Y004957D01*
X022218Y004902D01*
X022201Y004849D01*
X022179Y004796D01*
X022154Y004746D01*
X021450Y004325D02*
X021396Y004327D01*
X021343Y004332D01*
X021289Y004341D01*
X021237Y004354D01*
X021186Y004370D01*
X021135Y004390D01*
X021086Y004412D01*
X021039Y004438D01*
X020994Y004468D01*
X020951Y004500D01*
X020910Y004535D01*
X020871Y004573D01*
X020835Y004613D01*
X020839Y005642D02*
X020875Y005681D01*
X020914Y005719D01*
X020954Y005753D01*
X020997Y005785D01*
X021042Y005813D01*
X021089Y005839D01*
X021138Y005862D01*
X021188Y005881D01*
X021239Y005897D01*
X021291Y005909D01*
X021343Y005918D01*
X021397Y005923D01*
X021450Y005925D01*
X020000Y002850D02*
X019700Y002850D01*
X019400Y002850D01*
X019400Y002650D02*
X019700Y002650D01*
X020000Y002650D01*
D14*
X020950Y006125D02*
X020950Y006475D01*
X021950Y006475D02*
X021950Y006125D01*
X022950Y006125D02*
X022950Y006475D01*
X023950Y006475D02*
X023950Y006125D01*
X024950Y006125D02*
X024950Y006475D01*
X025950Y006475D02*
X025950Y006125D01*
X026950Y006125D02*
X026950Y006475D01*
X026950Y008775D02*
X026950Y009125D01*
X025950Y009125D02*
X025950Y008775D01*
X024950Y008775D02*
X024950Y009125D01*
X023950Y009125D02*
X023950Y008775D01*
X022950Y008775D02*
X022950Y009125D01*
X021950Y009125D02*
X021950Y008775D01*
X020950Y008775D02*
X020950Y009125D01*
X019700Y009525D02*
X019700Y009875D01*
X019700Y007225D02*
X019700Y006875D01*
X017825Y013375D02*
X017475Y013375D01*
X017475Y014375D02*
X017825Y014375D01*
X015175Y014375D02*
X014825Y014375D01*
X014825Y013375D02*
X015175Y013375D01*
D15*
X019700Y009450D03*
X020950Y008700D03*
X021950Y008700D03*
X022950Y008700D03*
X023950Y008700D03*
X024950Y008700D03*
X025950Y008700D03*
X026950Y008700D03*
X026950Y006550D03*
X025950Y006550D03*
X024950Y006550D03*
X023950Y006550D03*
X022950Y006550D03*
X021950Y006550D03*
X020950Y006550D03*
X019700Y007300D03*
D16*
X019578Y007880D02*
X019520Y007938D01*
X019520Y008055D01*
X019578Y008114D01*
X019636Y008114D01*
X019870Y007880D01*
X019870Y008114D01*
X019870Y008239D02*
X019520Y008239D01*
X019636Y008414D02*
X019753Y008239D01*
X019870Y008414D01*
X020770Y007898D02*
X020770Y007782D01*
X020828Y007723D01*
X021062Y007723D01*
X020828Y007957D01*
X021062Y007957D01*
X021120Y007898D01*
X021120Y007782D01*
X021062Y007723D01*
X021120Y007598D02*
X021120Y007364D01*
X020886Y007598D01*
X020828Y007598D01*
X020770Y007539D01*
X020770Y007422D01*
X020828Y007364D01*
X020828Y007239D02*
X020770Y007180D01*
X020770Y007063D01*
X020828Y007005D01*
X020828Y007239D02*
X020886Y007239D01*
X021120Y007005D01*
X021120Y007239D01*
X021770Y007180D02*
X021770Y007063D01*
X021828Y007005D01*
X021770Y007180D02*
X021828Y007239D01*
X021886Y007239D01*
X022120Y007005D01*
X022120Y007239D01*
X022120Y007364D02*
X021886Y007598D01*
X021828Y007598D01*
X021770Y007539D01*
X021770Y007422D01*
X021828Y007364D01*
X022120Y007364D02*
X022120Y007598D01*
X022062Y007723D02*
X022120Y007782D01*
X022120Y007898D01*
X022062Y007957D01*
X021828Y007957D01*
X022062Y007723D01*
X021828Y007723D01*
X021770Y007782D01*
X021770Y007898D01*
X021828Y007957D01*
X022770Y007898D02*
X022770Y007782D01*
X022828Y007723D01*
X023062Y007723D01*
X022828Y007957D01*
X023062Y007957D01*
X023120Y007898D01*
X023120Y007782D01*
X023062Y007723D01*
X023120Y007598D02*
X023120Y007364D01*
X022886Y007598D01*
X022828Y007598D01*
X022770Y007539D01*
X022770Y007422D01*
X022828Y007364D01*
X022828Y007239D02*
X022770Y007180D01*
X022770Y007063D01*
X022828Y007005D01*
X022828Y007239D02*
X022886Y007239D01*
X023120Y007005D01*
X023120Y007239D01*
X023770Y007180D02*
X023770Y007063D01*
X023828Y007005D01*
X023770Y007180D02*
X023828Y007239D01*
X023886Y007239D01*
X024120Y007005D01*
X024120Y007239D01*
X024120Y007364D02*
X023886Y007598D01*
X023828Y007598D01*
X023770Y007539D01*
X023770Y007422D01*
X023828Y007364D01*
X024120Y007364D02*
X024120Y007598D01*
X024062Y007723D02*
X023828Y007957D01*
X024062Y007957D01*
X024120Y007898D01*
X024120Y007782D01*
X024062Y007723D01*
X023828Y007723D01*
X023770Y007782D01*
X023770Y007898D01*
X023828Y007957D01*
X024770Y007898D02*
X024770Y007782D01*
X024828Y007723D01*
X025062Y007723D01*
X024828Y007957D01*
X025062Y007957D01*
X025120Y007898D01*
X025120Y007782D01*
X025062Y007723D01*
X025120Y007598D02*
X025120Y007364D01*
X024886Y007598D01*
X024828Y007598D01*
X024770Y007539D01*
X024770Y007422D01*
X024828Y007364D01*
X024828Y007239D02*
X024770Y007180D01*
X024770Y007063D01*
X024828Y007005D01*
X024828Y007239D02*
X024886Y007239D01*
X025120Y007005D01*
X025120Y007239D01*
X025770Y007180D02*
X025770Y007063D01*
X025828Y007005D01*
X025770Y007180D02*
X025828Y007239D01*
X025886Y007239D01*
X026120Y007005D01*
X026120Y007239D01*
X026120Y007364D02*
X025886Y007598D01*
X025828Y007598D01*
X025770Y007539D01*
X025770Y007422D01*
X025828Y007364D01*
X026120Y007364D02*
X026120Y007598D01*
X026062Y007723D02*
X025828Y007957D01*
X026062Y007957D01*
X026120Y007898D01*
X026120Y007782D01*
X026062Y007723D01*
X025828Y007723D01*
X025770Y007782D01*
X025770Y007898D01*
X025828Y007957D01*
X026770Y007898D02*
X026770Y007782D01*
X026828Y007723D01*
X027062Y007723D01*
X026828Y007957D01*
X027062Y007957D01*
X027120Y007898D01*
X027120Y007782D01*
X027062Y007723D01*
X027120Y007598D02*
X027120Y007364D01*
X026886Y007598D01*
X026828Y007598D01*
X026770Y007539D01*
X026770Y007422D01*
X026828Y007364D01*
X026828Y007239D02*
X026770Y007180D01*
X026770Y007063D01*
X026828Y007005D01*
X026828Y007239D02*
X026886Y007239D01*
X027120Y007005D01*
X027120Y007239D01*
X026770Y007898D02*
X026828Y007957D01*
X024828Y007957D02*
X024770Y007898D01*
X022828Y007957D02*
X022770Y007898D01*
X020828Y007957D02*
X020770Y007898D01*
X016861Y013195D02*
X016686Y013312D01*
X016861Y013429D01*
X016686Y013545D02*
X016686Y013195D01*
X016560Y013253D02*
X016502Y013195D01*
X016385Y013195D01*
X016327Y013253D01*
X016560Y013487D01*
X016560Y013253D01*
X016327Y013253D02*
X016327Y013487D01*
X016385Y013545D01*
X016502Y013545D01*
X016560Y013487D01*
X016084Y013545D02*
X016084Y013195D01*
X015968Y013195D02*
X016201Y013195D01*
X015968Y013429D02*
X016084Y013545D01*
X016084Y014195D02*
X016084Y014545D01*
X015968Y014429D01*
X015968Y014195D02*
X016201Y014195D01*
X016327Y014253D02*
X016560Y014487D01*
X016560Y014253D01*
X016502Y014195D01*
X016385Y014195D01*
X016327Y014253D01*
X016327Y014487D01*
X016385Y014545D01*
X016502Y014545D01*
X016560Y014487D01*
X016686Y014545D02*
X016686Y014195D01*
X016686Y014312D02*
X016861Y014195D01*
X016686Y014312D02*
X016861Y014429D01*
X008805Y015145D02*
X008345Y015145D01*
X008575Y015222D02*
X008805Y015452D01*
X008805Y015605D02*
X008805Y015912D01*
X008575Y015759D02*
X008575Y015605D01*
X008345Y015605D02*
X008805Y015605D01*
X008345Y015605D02*
X008345Y015912D01*
X008345Y016066D02*
X008421Y016066D01*
X008575Y016219D01*
X008805Y016219D01*
X008575Y016219D02*
X008421Y016373D01*
X008345Y016373D01*
X008345Y016526D02*
X008345Y016756D01*
X008421Y016833D01*
X008498Y016833D01*
X008575Y016756D01*
X008575Y016526D01*
X008805Y016526D02*
X008805Y016756D01*
X008728Y016833D01*
X008652Y016833D01*
X008575Y016756D01*
X008421Y016987D02*
X008728Y016987D01*
X008805Y017063D01*
X008805Y017217D01*
X008728Y017293D01*
X008421Y017293D01*
X008345Y017217D01*
X008345Y017063D01*
X008421Y016987D01*
X008498Y017447D02*
X008345Y017600D01*
X008498Y017754D01*
X008805Y017754D01*
X008805Y017907D02*
X008345Y017907D01*
X008345Y018138D01*
X008421Y018214D01*
X008575Y018214D01*
X008652Y018138D01*
X008652Y017907D01*
X008652Y018061D02*
X008805Y018214D01*
X008805Y018368D02*
X008805Y018598D01*
X008728Y018675D01*
X008421Y018675D01*
X008345Y018598D01*
X008345Y018368D01*
X008805Y018368D01*
X008575Y017754D02*
X008575Y017447D01*
X008498Y017447D02*
X008805Y017447D01*
X008805Y016526D02*
X008345Y016526D01*
X008345Y015452D02*
X008652Y015145D01*
D17*
X006658Y016362D02*
X006482Y016362D01*
X006286Y016360D02*
X006286Y016557D01*
X006483Y016557D02*
X006481Y016584D01*
X006476Y016610D01*
X006467Y016635D01*
X006454Y016659D01*
X006439Y016681D01*
X006420Y016701D01*
X006400Y016718D01*
X006377Y016732D01*
X006352Y016743D01*
X006326Y016750D01*
X006299Y016754D01*
X006273Y016754D01*
X006246Y016750D01*
X006220Y016743D01*
X006195Y016732D01*
X006172Y016718D01*
X006152Y016701D01*
X006133Y016681D01*
X006118Y016659D01*
X006105Y016635D01*
X006096Y016610D01*
X006091Y016584D01*
X006089Y016557D01*
X006286Y016557D01*
X006680Y016656D02*
X006678Y016695D01*
X006672Y016733D01*
X006663Y016770D01*
X006650Y016807D01*
X006633Y016842D01*
X006614Y016875D01*
X006591Y016906D01*
X006565Y016935D01*
X006536Y016961D01*
X006505Y016984D01*
X006472Y017003D01*
X006437Y017020D01*
X006400Y017033D01*
X006363Y017042D01*
X006325Y017048D01*
X006286Y017050D01*
X006247Y017048D01*
X006209Y017042D01*
X006172Y017033D01*
X006135Y017020D01*
X006100Y017003D01*
X006067Y016984D01*
X006036Y016961D01*
X006007Y016935D01*
X005981Y016906D01*
X005958Y016875D01*
X005939Y016842D01*
X005922Y016807D01*
X005909Y016770D01*
X005900Y016733D01*
X005894Y016695D01*
X005892Y016656D01*
X006482Y016557D02*
X006487Y016508D01*
X006489Y016459D01*
X006487Y016410D01*
X006482Y016361D01*
X006286Y016360D02*
X005941Y016360D01*
X006658Y016356D02*
X006669Y016430D01*
X006676Y016505D01*
X006680Y016580D01*
X006679Y016655D01*
X005892Y016656D02*
X005894Y016596D01*
X005900Y016536D01*
X005910Y016477D01*
X005924Y016418D01*
X005941Y016361D01*
X005892Y017148D02*
X006187Y017344D01*
X006335Y017492D02*
X006335Y017640D01*
X006482Y017640D01*
X006482Y017492D01*
X006483Y017492D02*
X006481Y017477D01*
X006477Y017462D01*
X006469Y017449D01*
X006459Y017437D01*
X006446Y017428D01*
X006432Y017422D01*
X006417Y017418D01*
X006401Y017418D01*
X006386Y017422D01*
X006372Y017428D01*
X006359Y017437D01*
X006349Y017449D01*
X006341Y017462D01*
X006337Y017477D01*
X006335Y017492D01*
X006187Y017344D02*
X006189Y017314D01*
X006194Y017285D01*
X006203Y017257D01*
X006215Y017230D01*
X006231Y017204D01*
X006249Y017181D01*
X006270Y017160D01*
X006293Y017142D01*
X006319Y017126D01*
X006346Y017114D01*
X006374Y017105D01*
X006403Y017100D01*
X006433Y017098D01*
X006463Y017100D01*
X006492Y017105D01*
X006520Y017114D01*
X006547Y017126D01*
X006573Y017142D01*
X006596Y017160D01*
X006617Y017181D01*
X006635Y017204D01*
X006651Y017230D01*
X006663Y017257D01*
X006672Y017285D01*
X006677Y017314D01*
X006679Y017344D01*
X006679Y017886D01*
X005892Y017886D01*
X005892Y017640D01*
X006187Y017640D01*
X005892Y017443D01*
X005892Y017148D01*
X005892Y017984D02*
X006089Y017984D01*
X006089Y018427D01*
X006187Y018427D01*
X006187Y017984D01*
X006384Y017984D01*
X006384Y018427D01*
X006482Y018427D01*
X006482Y017984D01*
X006679Y017984D01*
X006679Y018673D01*
X005892Y018673D01*
X005892Y017984D01*
X005892Y018969D02*
X005892Y019264D01*
X006089Y018969D01*
X005892Y018969D02*
X005894Y018942D01*
X005899Y018916D01*
X005908Y018891D01*
X005921Y018867D01*
X005936Y018845D01*
X005955Y018825D01*
X005975Y018808D01*
X005998Y018794D01*
X006023Y018783D01*
X006049Y018776D01*
X006076Y018772D01*
X006102Y018772D01*
X006129Y018776D01*
X006155Y018783D01*
X006180Y018794D01*
X006203Y018808D01*
X006223Y018825D01*
X006242Y018845D01*
X006257Y018867D01*
X006270Y018891D01*
X006279Y018916D01*
X006284Y018942D01*
X006286Y018969D01*
X006285Y018969D02*
X006287Y018942D01*
X006292Y018916D01*
X006301Y018891D01*
X006314Y018867D01*
X006329Y018845D01*
X006348Y018825D01*
X006368Y018808D01*
X006391Y018794D01*
X006416Y018783D01*
X006442Y018776D01*
X006469Y018772D01*
X006495Y018772D01*
X006522Y018776D01*
X006548Y018783D01*
X006573Y018794D01*
X006596Y018808D01*
X006616Y018825D01*
X006635Y018845D01*
X006650Y018867D01*
X006663Y018891D01*
X006672Y018916D01*
X006677Y018942D01*
X006679Y018969D01*
X006679Y019264D01*
X006482Y018969D01*
X006286Y019264D01*
X006089Y018969D01*
X005892Y019264D02*
X006286Y019264D01*
X006679Y019264D01*
X006679Y019510D01*
X005892Y019510D01*
X005892Y019264D01*
X012700Y003575D02*
X012700Y003475D01*
X013700Y003475D01*
X013700Y003575D01*
X013700Y002875D02*
X012700Y002875D01*
X012700Y001875D01*
X013700Y001875D01*
X013700Y002875D01*
X012950Y002375D02*
X012952Y002406D01*
X012958Y002437D01*
X012968Y002467D01*
X012981Y002495D01*
X012998Y002522D01*
X013018Y002546D01*
X013041Y002568D01*
X013066Y002586D01*
X013094Y002601D01*
X013123Y002613D01*
X013153Y002621D01*
X013184Y002625D01*
X013216Y002625D01*
X013247Y002621D01*
X013277Y002613D01*
X013306Y002601D01*
X013334Y002586D01*
X013359Y002568D01*
X013382Y002546D01*
X013402Y002522D01*
X013419Y002495D01*
X013432Y002467D01*
X013442Y002437D01*
X013448Y002406D01*
X013450Y002375D01*
X013448Y002344D01*
X013442Y002313D01*
X013432Y002283D01*
X013419Y002255D01*
X013402Y002228D01*
X013382Y002204D01*
X013359Y002182D01*
X013334Y002164D01*
X013306Y002149D01*
X013277Y002137D01*
X013247Y002129D01*
X013216Y002125D01*
X013184Y002125D01*
X013153Y002129D01*
X013123Y002137D01*
X013094Y002149D01*
X013066Y002164D01*
X013041Y002182D01*
X013018Y002204D01*
X012998Y002228D01*
X012981Y002255D01*
X012968Y002283D01*
X012958Y002313D01*
X012952Y002344D01*
X012950Y002375D01*
X012700Y001275D02*
X012700Y001175D01*
X012700Y001275D02*
X013650Y001275D01*
X013650Y001175D01*
D18*
X002700Y000500D02*
X002700Y021500D01*
X028100Y021500D01*
X028700Y020900D01*
X028700Y016400D01*
X029700Y015400D01*
X029700Y002500D01*
X028700Y001500D01*
X028700Y000500D01*
X002700Y000500D01*
X007570Y001500D02*
X007572Y001550D01*
X007578Y001600D01*
X007588Y001649D01*
X007602Y001697D01*
X007619Y001744D01*
X007640Y001789D01*
X007665Y001833D01*
X007693Y001874D01*
X007725Y001913D01*
X007759Y001950D01*
X007796Y001984D01*
X007836Y002014D01*
X007878Y002041D01*
X007922Y002065D01*
X007968Y002086D01*
X008015Y002102D01*
X008063Y002115D01*
X008113Y002124D01*
X008162Y002129D01*
X008213Y002130D01*
X008263Y002127D01*
X008312Y002120D01*
X008361Y002109D01*
X008409Y002094D01*
X008455Y002076D01*
X008500Y002054D01*
X008543Y002028D01*
X008584Y001999D01*
X008623Y001967D01*
X008659Y001932D01*
X008691Y001894D01*
X008721Y001854D01*
X008748Y001811D01*
X008771Y001767D01*
X008790Y001721D01*
X008806Y001673D01*
X008818Y001624D01*
X008826Y001575D01*
X008830Y001525D01*
X008830Y001475D01*
X008826Y001425D01*
X008818Y001376D01*
X008806Y001327D01*
X008790Y001279D01*
X008771Y001233D01*
X008748Y001189D01*
X008721Y001146D01*
X008691Y001106D01*
X008659Y001068D01*
X008623Y001033D01*
X008584Y001001D01*
X008543Y000972D01*
X008500Y000946D01*
X008455Y000924D01*
X008409Y000906D01*
X008361Y000891D01*
X008312Y000880D01*
X008263Y000873D01*
X008213Y000870D01*
X008162Y000871D01*
X008113Y000876D01*
X008063Y000885D01*
X008015Y000898D01*
X007968Y000914D01*
X007922Y000935D01*
X007878Y000959D01*
X007836Y000986D01*
X007796Y001016D01*
X007759Y001050D01*
X007725Y001087D01*
X007693Y001126D01*
X007665Y001167D01*
X007640Y001211D01*
X007619Y001256D01*
X007602Y001303D01*
X007588Y001351D01*
X007578Y001400D01*
X007572Y001450D01*
X007570Y001500D01*
X011558Y005260D02*
X011560Y005295D01*
X011566Y005330D01*
X011576Y005364D01*
X011589Y005397D01*
X011606Y005428D01*
X011627Y005456D01*
X011650Y005483D01*
X011677Y005506D01*
X011705Y005527D01*
X011736Y005544D01*
X011769Y005557D01*
X011803Y005567D01*
X011838Y005573D01*
X011873Y005575D01*
X011908Y005573D01*
X011943Y005567D01*
X011977Y005557D01*
X012010Y005544D01*
X012041Y005527D01*
X012069Y005506D01*
X012096Y005483D01*
X012119Y005456D01*
X012140Y005428D01*
X012157Y005397D01*
X012170Y005364D01*
X012180Y005330D01*
X012186Y005295D01*
X012188Y005260D01*
X012186Y005225D01*
X012180Y005190D01*
X012170Y005156D01*
X012157Y005123D01*
X012140Y005092D01*
X012119Y005064D01*
X012096Y005037D01*
X012069Y005014D01*
X012041Y004993D01*
X012010Y004976D01*
X011977Y004963D01*
X011943Y004953D01*
X011908Y004947D01*
X011873Y004945D01*
X011838Y004947D01*
X011803Y004953D01*
X011769Y004963D01*
X011736Y004976D01*
X011705Y004993D01*
X011677Y005014D01*
X011650Y005037D01*
X011627Y005064D01*
X011606Y005092D01*
X011589Y005123D01*
X011576Y005156D01*
X011566Y005190D01*
X011560Y005225D01*
X011558Y005260D01*
X011656Y013567D02*
X011658Y013596D01*
X011664Y013624D01*
X011673Y013652D01*
X011686Y013678D01*
X011703Y013701D01*
X011722Y013723D01*
X011744Y013742D01*
X011769Y013757D01*
X011795Y013770D01*
X011823Y013778D01*
X011851Y013783D01*
X011880Y013784D01*
X011909Y013781D01*
X011937Y013774D01*
X011964Y013764D01*
X011990Y013750D01*
X012013Y013733D01*
X012034Y013713D01*
X012052Y013690D01*
X012067Y013665D01*
X012078Y013638D01*
X012086Y013610D01*
X012090Y013581D01*
X012090Y013553D01*
X012086Y013524D01*
X012078Y013496D01*
X012067Y013469D01*
X012052Y013444D01*
X012034Y013421D01*
X012013Y013401D01*
X011990Y013384D01*
X011964Y013370D01*
X011937Y013360D01*
X011909Y013353D01*
X011880Y013350D01*
X011851Y013351D01*
X011823Y013356D01*
X011795Y013364D01*
X011769Y013377D01*
X011744Y013392D01*
X011722Y013411D01*
X011703Y013433D01*
X011686Y013456D01*
X011673Y013482D01*
X011664Y013510D01*
X011658Y013538D01*
X011656Y013567D01*
X008070Y020500D02*
X008072Y020550D01*
X008078Y020600D01*
X008088Y020649D01*
X008102Y020697D01*
X008119Y020744D01*
X008140Y020789D01*
X008165Y020833D01*
X008193Y020874D01*
X008225Y020913D01*
X008259Y020950D01*
X008296Y020984D01*
X008336Y021014D01*
X008378Y021041D01*
X008422Y021065D01*
X008468Y021086D01*
X008515Y021102D01*
X008563Y021115D01*
X008613Y021124D01*
X008662Y021129D01*
X008713Y021130D01*
X008763Y021127D01*
X008812Y021120D01*
X008861Y021109D01*
X008909Y021094D01*
X008955Y021076D01*
X009000Y021054D01*
X009043Y021028D01*
X009084Y020999D01*
X009123Y020967D01*
X009159Y020932D01*
X009191Y020894D01*
X009221Y020854D01*
X009248Y020811D01*
X009271Y020767D01*
X009290Y020721D01*
X009306Y020673D01*
X009318Y020624D01*
X009326Y020575D01*
X009330Y020525D01*
X009330Y020475D01*
X009326Y020425D01*
X009318Y020376D01*
X009306Y020327D01*
X009290Y020279D01*
X009271Y020233D01*
X009248Y020189D01*
X009221Y020146D01*
X009191Y020106D01*
X009159Y020068D01*
X009123Y020033D01*
X009084Y020001D01*
X009043Y019972D01*
X009000Y019946D01*
X008955Y019924D01*
X008909Y019906D01*
X008861Y019891D01*
X008812Y019880D01*
X008763Y019873D01*
X008713Y019870D01*
X008662Y019871D01*
X008613Y019876D01*
X008563Y019885D01*
X008515Y019898D01*
X008468Y019914D01*
X008422Y019935D01*
X008378Y019959D01*
X008336Y019986D01*
X008296Y020016D01*
X008259Y020050D01*
X008225Y020087D01*
X008193Y020126D01*
X008165Y020167D01*
X008140Y020211D01*
X008119Y020256D01*
X008102Y020303D01*
X008088Y020351D01*
X008078Y020400D01*
X008072Y020450D01*
X008070Y020500D01*
X028070Y014500D02*
X028072Y014550D01*
X028078Y014600D01*
X028088Y014649D01*
X028102Y014697D01*
X028119Y014744D01*
X028140Y014789D01*
X028165Y014833D01*
X028193Y014874D01*
X028225Y014913D01*
X028259Y014950D01*
X028296Y014984D01*
X028336Y015014D01*
X028378Y015041D01*
X028422Y015065D01*
X028468Y015086D01*
X028515Y015102D01*
X028563Y015115D01*
X028613Y015124D01*
X028662Y015129D01*
X028713Y015130D01*
X028763Y015127D01*
X028812Y015120D01*
X028861Y015109D01*
X028909Y015094D01*
X028955Y015076D01*
X029000Y015054D01*
X029043Y015028D01*
X029084Y014999D01*
X029123Y014967D01*
X029159Y014932D01*
X029191Y014894D01*
X029221Y014854D01*
X029248Y014811D01*
X029271Y014767D01*
X029290Y014721D01*
X029306Y014673D01*
X029318Y014624D01*
X029326Y014575D01*
X029330Y014525D01*
X029330Y014475D01*
X029326Y014425D01*
X029318Y014376D01*
X029306Y014327D01*
X029290Y014279D01*
X029271Y014233D01*
X029248Y014189D01*
X029221Y014146D01*
X029191Y014106D01*
X029159Y014068D01*
X029123Y014033D01*
X029084Y014001D01*
X029043Y013972D01*
X029000Y013946D01*
X028955Y013924D01*
X028909Y013906D01*
X028861Y013891D01*
X028812Y013880D01*
X028763Y013873D01*
X028713Y013870D01*
X028662Y013871D01*
X028613Y013876D01*
X028563Y013885D01*
X028515Y013898D01*
X028468Y013914D01*
X028422Y013935D01*
X028378Y013959D01*
X028336Y013986D01*
X028296Y014016D01*
X028259Y014050D01*
X028225Y014087D01*
X028193Y014126D01*
X028165Y014167D01*
X028140Y014211D01*
X028119Y014256D01*
X028102Y014303D01*
X028088Y014351D01*
X028078Y014400D01*
X028072Y014450D01*
X028070Y014500D01*
D19*
X027782Y019615D02*
X027658Y019615D01*
X027597Y019677D01*
X027844Y019924D01*
X027844Y019677D01*
X027782Y019615D01*
X027597Y019677D02*
X027597Y019924D01*
X027658Y019985D01*
X027782Y019985D01*
X027844Y019924D01*
X026844Y019615D02*
X026597Y019615D01*
X026720Y019615D02*
X026720Y019985D01*
X026597Y019862D01*
X025844Y019862D02*
X025844Y019924D01*
X025782Y019985D01*
X025658Y019985D01*
X025597Y019924D01*
X025844Y019862D02*
X025597Y019615D01*
X025844Y019615D01*
X024844Y019677D02*
X024782Y019615D01*
X024658Y019615D01*
X024597Y019677D01*
X024720Y019800D02*
X024782Y019800D01*
X024844Y019738D01*
X024844Y019677D01*
X024782Y019800D02*
X024844Y019862D01*
X024844Y019924D01*
X024782Y019985D01*
X024658Y019985D01*
X024597Y019924D01*
X023844Y019800D02*
X023597Y019800D01*
X023782Y019985D01*
X023782Y019615D01*
X022844Y019677D02*
X022782Y019615D01*
X022658Y019615D01*
X022597Y019677D01*
X022597Y019800D02*
X022720Y019862D01*
X022782Y019862D01*
X022844Y019800D01*
X022844Y019677D01*
X022597Y019800D02*
X022597Y019985D01*
X022844Y019985D01*
X021844Y019985D02*
X021720Y019924D01*
X021597Y019800D01*
X021782Y019800D01*
X021844Y019738D01*
X021844Y019677D01*
X021782Y019615D01*
X021658Y019615D01*
X021597Y019677D01*
X021597Y019800D01*
X020844Y019924D02*
X020597Y019677D01*
X020597Y019615D01*
X020597Y019985D02*
X020844Y019985D01*
X020844Y019924D01*
X019244Y019924D02*
X019244Y019862D01*
X019182Y019800D01*
X019058Y019800D01*
X018997Y019862D01*
X018997Y019924D01*
X019058Y019985D01*
X019182Y019985D01*
X019244Y019924D01*
X019182Y019800D02*
X019244Y019738D01*
X019244Y019677D01*
X019182Y019615D01*
X019058Y019615D01*
X018997Y019677D01*
X018997Y019738D01*
X019058Y019800D01*
X018244Y019800D02*
X018058Y019800D01*
X017997Y019862D01*
X017997Y019924D01*
X018058Y019985D01*
X018182Y019985D01*
X018244Y019924D01*
X018244Y019677D01*
X018182Y019615D01*
X018058Y019615D01*
X017997Y019677D01*
X017444Y019677D02*
X017444Y019924D01*
X017197Y019677D01*
X017258Y019615D01*
X017382Y019615D01*
X017444Y019677D01*
X017197Y019677D02*
X017197Y019924D01*
X017258Y019985D01*
X017382Y019985D01*
X017444Y019924D01*
X016952Y019985D02*
X016952Y019615D01*
X017075Y019615D02*
X016828Y019615D01*
X016828Y019862D02*
X016952Y019985D01*
X016444Y019615D02*
X016197Y019615D01*
X016075Y019615D02*
X015828Y019615D01*
X015952Y019615D02*
X015952Y019985D01*
X015828Y019862D01*
X016197Y019862D02*
X016320Y019985D01*
X016320Y019615D01*
X015444Y019615D02*
X015197Y019615D01*
X015444Y019862D01*
X015444Y019924D01*
X015382Y019985D01*
X015258Y019985D01*
X015197Y019924D01*
X014952Y019985D02*
X014828Y019862D01*
X014952Y019985D02*
X014952Y019615D01*
X015075Y019615D02*
X014828Y019615D01*
X014444Y019677D02*
X014382Y019615D01*
X014258Y019615D01*
X014197Y019677D01*
X014075Y019615D02*
X013828Y019615D01*
X013952Y019615D02*
X013952Y019985D01*
X013828Y019862D01*
X013594Y019862D02*
X013408Y019862D01*
X013347Y019800D01*
X013347Y019677D01*
X013408Y019615D01*
X013594Y019615D01*
X013594Y019985D01*
X013225Y019800D02*
X013225Y019615D01*
X013225Y019800D02*
X013164Y019862D01*
X012978Y019862D01*
X012978Y019615D01*
X012857Y019615D02*
X012672Y019615D01*
X012610Y019677D01*
X012610Y019800D01*
X012672Y019862D01*
X012857Y019862D01*
X012857Y019553D01*
X012795Y019492D01*
X012733Y019492D01*
X012281Y019615D02*
X012281Y019924D01*
X012343Y019985D01*
X012343Y019800D02*
X012219Y019800D01*
X012098Y019800D02*
X012098Y019738D01*
X011851Y019738D01*
X011851Y019677D02*
X011851Y019800D01*
X011913Y019862D01*
X012036Y019862D01*
X012098Y019800D01*
X012036Y019615D02*
X011913Y019615D01*
X011851Y019677D01*
X011730Y019615D02*
X011606Y019738D01*
X011668Y019738D02*
X011483Y019738D01*
X011483Y019615D02*
X011483Y019985D01*
X011668Y019985D01*
X011730Y019924D01*
X011730Y019800D01*
X011668Y019738D01*
X011361Y019800D02*
X011115Y019800D01*
X011115Y019862D02*
X011238Y019985D01*
X011361Y019862D01*
X011361Y019615D01*
X011115Y019615D02*
X011115Y019862D01*
X014197Y019924D02*
X014258Y019985D01*
X014382Y019985D01*
X014444Y019924D01*
X014444Y019862D01*
X014382Y019800D01*
X014444Y019738D01*
X014444Y019677D01*
X014382Y019800D02*
X014320Y019800D01*
X015902Y020892D02*
X015964Y020892D01*
X016026Y020953D01*
X016026Y021262D01*
X015841Y021262D01*
X015779Y021200D01*
X015779Y021077D01*
X015841Y021015D01*
X016026Y021015D01*
X016147Y021015D02*
X016271Y021015D01*
X016209Y021015D02*
X016209Y021262D01*
X016147Y021262D01*
X016209Y021385D02*
X016209Y021447D01*
X016393Y021262D02*
X016516Y021262D01*
X016454Y021324D02*
X016454Y021077D01*
X016516Y021015D01*
X016638Y021077D02*
X016700Y021138D01*
X016885Y021138D01*
X016885Y021200D02*
X016885Y021015D01*
X016700Y021015D01*
X016638Y021077D01*
X016700Y021262D02*
X016823Y021262D01*
X016885Y021200D01*
X017007Y021015D02*
X017130Y021015D01*
X017068Y021015D02*
X017068Y021385D01*
X017007Y021385D01*
X017620Y021385D02*
X017744Y021385D01*
X017682Y021385D02*
X017682Y021015D01*
X017620Y021015D02*
X017744Y021015D01*
X017866Y021015D02*
X018113Y021385D01*
X018234Y021324D02*
X018234Y021077D01*
X018296Y021015D01*
X018419Y021015D01*
X018481Y021077D01*
X018481Y021324D01*
X018419Y021385D01*
X018296Y021385D01*
X018234Y021324D01*
X015657Y021015D02*
X015533Y021015D01*
X015595Y021015D02*
X015595Y021262D01*
X015533Y021262D01*
X015412Y021324D02*
X015412Y021077D01*
X015350Y021015D01*
X015165Y021015D01*
X015165Y021385D01*
X015350Y021385D01*
X015412Y021324D01*
X015595Y021385D02*
X015595Y021447D01*
X022765Y021385D02*
X022765Y021015D01*
X022950Y021015D01*
X023012Y021077D01*
X023012Y021324D01*
X022950Y021385D01*
X022765Y021385D01*
X023133Y021262D02*
X023195Y021262D01*
X023195Y021015D01*
X023133Y021015D02*
X023257Y021015D01*
X023379Y021077D02*
X023441Y021015D01*
X023626Y021015D01*
X023626Y020953D02*
X023564Y020892D01*
X023502Y020892D01*
X023626Y020953D02*
X023626Y021262D01*
X023441Y021262D01*
X023379Y021200D01*
X023379Y021077D01*
X023195Y021385D02*
X023195Y021447D01*
X023747Y021262D02*
X023809Y021262D01*
X023809Y021015D01*
X023747Y021015D02*
X023871Y021015D01*
X024054Y021077D02*
X024054Y021324D01*
X023993Y021262D02*
X024116Y021262D01*
X024300Y021262D02*
X024423Y021262D01*
X024485Y021200D01*
X024485Y021015D01*
X024300Y021015D01*
X024238Y021077D01*
X024300Y021138D01*
X024485Y021138D01*
X024607Y021015D02*
X024730Y021015D01*
X024668Y021015D02*
X024668Y021385D01*
X024607Y021385D01*
X025220Y021385D02*
X025344Y021385D01*
X025282Y021385D02*
X025282Y021015D01*
X025220Y021015D02*
X025344Y021015D01*
X025466Y021015D02*
X025713Y021385D01*
X025834Y021324D02*
X025834Y021077D01*
X025896Y021015D01*
X026019Y021015D01*
X026081Y021077D01*
X026081Y021324D01*
X026019Y021385D01*
X025896Y021385D01*
X025834Y021324D01*
X024116Y021015D02*
X024054Y021077D01*
X023809Y021385D02*
X023809Y021447D01*
X020290Y005932D02*
X020290Y005738D01*
X020145Y005883D01*
X020435Y005883D01*
X020387Y005637D02*
X020193Y005637D01*
X020387Y005444D01*
X020435Y005492D01*
X020435Y005589D01*
X020387Y005637D01*
X020387Y005444D02*
X020193Y005444D01*
X020145Y005492D01*
X020145Y005589D01*
X020193Y005637D01*
X020193Y005342D02*
X020145Y005294D01*
X020145Y005197D01*
X020193Y005149D01*
X020242Y005149D01*
X020290Y005197D01*
X020290Y005342D01*
X020387Y005342D02*
X020193Y005342D01*
X020387Y005342D02*
X020435Y005294D01*
X020435Y005197D01*
X020387Y005149D01*
X020387Y005048D02*
X020435Y004999D01*
X020435Y004903D01*
X020387Y004854D01*
X020435Y004753D02*
X020145Y004753D01*
X020193Y004854D02*
X020145Y004903D01*
X020145Y004999D01*
X020193Y005048D01*
X020242Y005048D01*
X020290Y004999D01*
X020338Y005048D01*
X020387Y005048D01*
X020290Y004999D02*
X020290Y004951D01*
X020435Y004753D02*
X020145Y004560D01*
X020435Y004560D01*
X020435Y004458D02*
X020435Y004265D01*
X020242Y004458D01*
X020193Y004458D01*
X020145Y004410D01*
X020145Y004313D01*
X020193Y004265D01*
X021127Y003485D02*
X021127Y003195D01*
X021321Y003195D01*
X021422Y003195D02*
X021422Y003485D01*
X021567Y003485D01*
X021616Y003437D01*
X021616Y003340D01*
X021567Y003292D01*
X021422Y003292D01*
X021717Y003195D02*
X021910Y003388D01*
X021910Y003437D01*
X021862Y003485D01*
X021765Y003485D01*
X021717Y003437D01*
X021717Y003195D02*
X021910Y003195D01*
X022011Y003243D02*
X022060Y003195D01*
X022157Y003195D01*
X022205Y003243D01*
X022205Y003437D01*
X022157Y003485D01*
X022060Y003485D01*
X022011Y003437D01*
X022011Y003388D01*
X022060Y003340D01*
X022205Y003340D01*
X022306Y003340D02*
X022403Y003388D01*
X022451Y003388D01*
X022500Y003340D01*
X022500Y003243D01*
X022451Y003195D01*
X022354Y003195D01*
X022306Y003243D01*
X022306Y003340D02*
X022306Y003485D01*
X022500Y003485D01*
X022601Y003437D02*
X022649Y003485D01*
X022746Y003485D01*
X022794Y003437D01*
X022601Y003243D01*
X022649Y003195D01*
X022746Y003195D01*
X022794Y003243D01*
X022794Y003437D01*
X022895Y003485D02*
X023089Y003485D01*
X023089Y003437D01*
X022895Y003243D01*
X022895Y003195D01*
X023089Y003195D01*
X022601Y003243D02*
X022601Y003437D01*
X022627Y002385D02*
X022750Y002385D01*
X022812Y002324D01*
X022565Y002077D01*
X022627Y002015D01*
X022750Y002015D01*
X022812Y002077D01*
X022812Y002324D01*
X022627Y002385D02*
X022565Y002324D01*
X022565Y002077D01*
X023565Y002015D02*
X023812Y002015D01*
X023688Y002015D02*
X023688Y002385D01*
X023565Y002262D01*
X024565Y002324D02*
X024627Y002385D01*
X024750Y002385D01*
X024812Y002324D01*
X024812Y002262D01*
X024565Y002015D01*
X024812Y002015D01*
X025565Y002077D02*
X025627Y002015D01*
X025750Y002015D01*
X025812Y002077D01*
X025812Y002138D01*
X025750Y002200D01*
X025688Y002200D01*
X025750Y002200D02*
X025812Y002262D01*
X025812Y002324D01*
X025750Y002385D01*
X025627Y002385D01*
X025565Y002324D01*
X026565Y002200D02*
X026812Y002200D01*
X026750Y002015D02*
X026750Y002385D01*
X026565Y002200D01*
X027565Y002200D02*
X027688Y002262D01*
X027750Y002262D01*
X027812Y002200D01*
X027812Y002077D01*
X027750Y002015D01*
X027627Y002015D01*
X027565Y002077D01*
X027565Y002200D02*
X027565Y002385D01*
X027812Y002385D01*
X026905Y000944D02*
X026720Y000944D01*
X026720Y000697D01*
X026598Y000697D02*
X026474Y000697D01*
X026536Y000697D02*
X026536Y001067D01*
X026474Y001067D02*
X026598Y001067D01*
X026905Y000944D02*
X026967Y000882D01*
X026967Y000697D01*
X025985Y000697D02*
X025799Y000697D01*
X025738Y000759D01*
X025738Y000882D01*
X025799Y000944D01*
X025985Y000944D01*
X025985Y000635D01*
X025923Y000574D01*
X025861Y000574D01*
X025616Y000759D02*
X025616Y000882D01*
X025555Y000944D01*
X025431Y000944D01*
X025369Y000882D01*
X025369Y000759D01*
X025431Y000697D01*
X025555Y000697D01*
X025616Y000759D01*
X025247Y000697D02*
X025124Y000697D01*
X025186Y000697D02*
X025186Y001067D01*
X025124Y001067D01*
X024941Y000944D02*
X025002Y000882D01*
X025002Y000697D01*
X024817Y000697D01*
X024756Y000759D01*
X024817Y000820D01*
X025002Y000820D01*
X024941Y000944D02*
X024817Y000944D01*
X024634Y000882D02*
X024634Y000697D01*
X024634Y000882D02*
X024572Y000944D01*
X024387Y000944D01*
X024387Y000697D01*
X024266Y000697D02*
X024266Y000944D01*
X024142Y001067D01*
X024019Y000944D01*
X024019Y000697D01*
X024019Y000882D02*
X024266Y000882D01*
X021208Y002015D02*
X021208Y002200D01*
X021146Y002262D01*
X020961Y002262D01*
X020961Y002015D01*
X020839Y002015D02*
X020715Y002015D01*
X020777Y002015D02*
X020777Y002262D01*
X020715Y002262D01*
X020777Y002385D02*
X020777Y002447D01*
X020594Y002385D02*
X020594Y002138D01*
X020470Y002015D01*
X020347Y002138D01*
X020347Y002385D01*
X019752Y002385D02*
X019752Y002015D01*
X019567Y002015D01*
X019506Y002077D01*
X019506Y002200D01*
X019567Y002262D01*
X019752Y002262D01*
X019384Y002200D02*
X019384Y002015D01*
X019384Y002200D02*
X019322Y002262D01*
X019137Y002262D01*
X019137Y002015D01*
X019016Y002077D02*
X019016Y002200D01*
X018892Y002200D01*
X018769Y002077D02*
X018769Y002324D01*
X018831Y002385D01*
X018954Y002385D01*
X019016Y002324D01*
X019016Y002077D02*
X018954Y002015D01*
X018831Y002015D01*
X018769Y002077D01*
X018112Y002262D02*
X017989Y002015D01*
X017865Y002262D01*
X017744Y002200D02*
X017744Y002077D01*
X017682Y002015D01*
X017559Y002015D01*
X017497Y002077D01*
X017497Y002200D02*
X017620Y002262D01*
X017682Y002262D01*
X017744Y002200D01*
X017744Y002385D02*
X017497Y002385D01*
X017497Y002200D01*
X017012Y002262D02*
X016889Y002015D01*
X016765Y002262D01*
X016644Y002262D02*
X016582Y002200D01*
X016644Y002138D01*
X016644Y002077D01*
X016582Y002015D01*
X016459Y002015D01*
X016397Y002077D01*
X016520Y002200D02*
X016582Y002200D01*
X016644Y002262D02*
X016644Y002324D01*
X016582Y002385D01*
X016459Y002385D01*
X016397Y002324D01*
X015995Y002385D02*
X015748Y002385D01*
X015871Y002385D02*
X015871Y002015D01*
X015626Y002077D02*
X015564Y002015D01*
X015441Y002015D01*
X015379Y002077D01*
X015258Y002015D02*
X015134Y002138D01*
X015196Y002138D02*
X015011Y002138D01*
X015011Y002015D02*
X015011Y002385D01*
X015196Y002385D01*
X015258Y002324D01*
X015258Y002200D01*
X015196Y002138D01*
X015379Y002262D02*
X015441Y002200D01*
X015564Y002200D01*
X015626Y002138D01*
X015626Y002077D01*
X015626Y002324D02*
X015564Y002385D01*
X015441Y002385D01*
X015379Y002324D01*
X015379Y002262D01*
D20*
X025700Y002925D03*
D21*
X005677Y016460D02*
X005677Y016560D01*
X005602Y016510D02*
X005602Y016460D01*
X005527Y016460D02*
X005677Y016460D01*
X005527Y016460D02*
X005527Y016560D01*
X005527Y016755D02*
X005677Y016755D01*
X005677Y016855D01*
X005677Y017050D02*
X005677Y017150D01*
X005602Y017100D02*
X005602Y017050D01*
X005527Y017050D02*
X005677Y017050D01*
X005527Y017050D02*
X005527Y017150D01*
X005552Y017344D02*
X005652Y017344D01*
X005677Y017369D01*
X005677Y017419D01*
X005652Y017444D01*
X005552Y017444D02*
X005527Y017419D01*
X005527Y017369D01*
X005552Y017344D01*
X005527Y017639D02*
X005527Y017739D01*
X005527Y017689D02*
X005677Y017689D01*
X005677Y017934D02*
X005527Y017934D01*
X005527Y018009D01*
X005552Y018034D01*
X005602Y018034D01*
X005627Y018009D01*
X005627Y017934D01*
X005627Y017984D02*
X005677Y018034D01*
X005652Y018228D02*
X005677Y018253D01*
X005677Y018303D01*
X005652Y018328D01*
X005552Y018328D01*
X005527Y018303D01*
X005527Y018253D01*
X005552Y018228D01*
X005652Y018228D01*
X005677Y018523D02*
X005527Y018523D01*
X005677Y018623D01*
X005527Y018623D01*
X005527Y018817D02*
X005527Y018868D01*
X005527Y018842D02*
X005677Y018842D01*
X005677Y018817D02*
X005677Y018868D01*
X005652Y019063D02*
X005677Y019088D01*
X005677Y019138D01*
X005652Y019163D01*
X005652Y019063D02*
X005552Y019063D01*
X005527Y019088D01*
X005527Y019138D01*
X005552Y019163D01*
X005552Y019358D02*
X005577Y019358D01*
X005602Y019383D01*
X005602Y019433D01*
X005627Y019458D01*
X005652Y019458D01*
X005677Y019433D01*
X005677Y019383D01*
X005652Y019358D01*
X005552Y019358D02*
X005527Y019383D01*
X005527Y019433D01*
X005552Y019458D01*
D22*
X015250Y014375D03*
X015250Y013375D03*
X017400Y013375D03*
X017400Y014375D03*
D23*
X013670Y018030D02*
X013650Y018050D01*
X013550Y018050D01*
X013500Y018450D02*
X013650Y018450D01*
X013670Y018470D01*
D24*
X013435Y018450D03*
X013435Y018050D03*
D25*
X022144Y018492D02*
X022144Y019831D01*
X022146Y019857D01*
X022151Y019882D01*
X022159Y019906D01*
X022170Y019930D01*
X022185Y019951D01*
X022202Y019970D01*
X022221Y019987D01*
X022243Y020002D01*
X022266Y020013D01*
X022290Y020021D01*
X022315Y020026D01*
X022341Y020028D01*
X024309Y020028D01*
X024335Y020026D01*
X024360Y020021D01*
X024384Y020013D01*
X024408Y020002D01*
X024429Y019987D01*
X024448Y019970D01*
X024465Y019951D01*
X024480Y019930D01*
X024491Y019906D01*
X024499Y019882D01*
X024504Y019857D01*
X024506Y019831D01*
X024506Y018492D01*
X018699Y014122D02*
X018701Y014258D01*
X018707Y014393D01*
X018717Y014529D01*
X018731Y014664D01*
X018749Y014799D01*
X018771Y014933D01*
X018796Y015066D01*
X018826Y015199D01*
X018860Y015330D01*
X018897Y015461D01*
X018938Y015590D01*
X018983Y015718D01*
X019032Y015845D01*
X019084Y015970D01*
X019140Y016094D01*
X019200Y016216D01*
X019263Y016336D01*
X019330Y016455D01*
X019400Y016571D01*
X019474Y016685D01*
X019551Y016797D01*
X019631Y016907D01*
X019714Y017014D01*
X019801Y017119D01*
X019890Y017221D01*
X019983Y017320D01*
X020078Y017417D01*
X020176Y017511D01*
X020277Y017602D01*
X020380Y017690D01*
X020486Y017775D01*
X020595Y017857D01*
X020706Y017935D01*
X020819Y018010D01*
X020934Y018082D01*
X021051Y018151D01*
X021171Y018216D01*
X021292Y018277D01*
X021415Y018335D01*
X021539Y018389D01*
X021665Y018440D01*
X021793Y018487D01*
X021921Y018530D01*
X022051Y018569D01*
X022182Y018605D01*
X022315Y018636D01*
X022448Y018664D01*
X022581Y018688D01*
X022716Y018708D01*
X022850Y018724D01*
X022986Y018736D01*
X023121Y018744D01*
X023257Y018748D01*
X023393Y018748D01*
X023529Y018744D01*
X023664Y018736D01*
X023800Y018724D01*
X023934Y018708D01*
X024069Y018688D01*
X024202Y018664D01*
X024335Y018636D01*
X024468Y018605D01*
X024599Y018569D01*
X024729Y018530D01*
X024857Y018487D01*
X024985Y018440D01*
X025111Y018389D01*
X025235Y018335D01*
X025358Y018277D01*
X025479Y018216D01*
X025599Y018151D01*
X025716Y018082D01*
X025831Y018010D01*
X025944Y017935D01*
X026055Y017857D01*
X026164Y017775D01*
X026270Y017690D01*
X026373Y017602D01*
X026474Y017511D01*
X026572Y017417D01*
X026667Y017320D01*
X026760Y017221D01*
X026849Y017119D01*
X026936Y017014D01*
X027019Y016907D01*
X027099Y016797D01*
X027176Y016685D01*
X027250Y016571D01*
X027320Y016455D01*
X027387Y016336D01*
X027450Y016216D01*
X027510Y016094D01*
X027566Y015970D01*
X027618Y015845D01*
X027667Y015718D01*
X027712Y015590D01*
X027753Y015461D01*
X027790Y015330D01*
X027824Y015199D01*
X027854Y015066D01*
X027879Y014933D01*
X027901Y014799D01*
X027919Y014664D01*
X027933Y014529D01*
X027943Y014393D01*
X027949Y014258D01*
X027951Y014122D01*
X027949Y013986D01*
X027943Y013851D01*
X027933Y013715D01*
X027919Y013580D01*
X027901Y013445D01*
X027879Y013311D01*
X027854Y013178D01*
X027824Y013045D01*
X027790Y012914D01*
X027753Y012783D01*
X027712Y012654D01*
X027667Y012526D01*
X027618Y012399D01*
X027566Y012274D01*
X027510Y012150D01*
X027450Y012028D01*
X027387Y011908D01*
X027320Y011789D01*
X027250Y011673D01*
X027176Y011559D01*
X027099Y011447D01*
X027019Y011337D01*
X026936Y011230D01*
X026849Y011125D01*
X026760Y011023D01*
X026667Y010924D01*
X026572Y010827D01*
X026474Y010733D01*
X026373Y010642D01*
X026270Y010554D01*
X026164Y010469D01*
X026055Y010387D01*
X025944Y010309D01*
X025831Y010234D01*
X025716Y010162D01*
X025599Y010093D01*
X025479Y010028D01*
X025358Y009967D01*
X025235Y009909D01*
X025111Y009855D01*
X024985Y009804D01*
X024857Y009757D01*
X024729Y009714D01*
X024599Y009675D01*
X024468Y009639D01*
X024335Y009608D01*
X024202Y009580D01*
X024069Y009556D01*
X023934Y009536D01*
X023800Y009520D01*
X023664Y009508D01*
X023529Y009500D01*
X023393Y009496D01*
X023257Y009496D01*
X023121Y009500D01*
X022986Y009508D01*
X022850Y009520D01*
X022716Y009536D01*
X022581Y009556D01*
X022448Y009580D01*
X022315Y009608D01*
X022182Y009639D01*
X022051Y009675D01*
X021921Y009714D01*
X021793Y009757D01*
X021665Y009804D01*
X021539Y009855D01*
X021415Y009909D01*
X021292Y009967D01*
X021171Y010028D01*
X021051Y010093D01*
X020934Y010162D01*
X020819Y010234D01*
X020706Y010309D01*
X020595Y010387D01*
X020486Y010469D01*
X020380Y010554D01*
X020277Y010642D01*
X020176Y010733D01*
X020078Y010827D01*
X019983Y010924D01*
X019890Y011023D01*
X019801Y011125D01*
X019714Y011230D01*
X019631Y011337D01*
X019551Y011447D01*
X019474Y011559D01*
X019400Y011673D01*
X019330Y011789D01*
X019263Y011908D01*
X019200Y012028D01*
X019140Y012150D01*
X019084Y012274D01*
X019032Y012399D01*
X018983Y012526D01*
X018938Y012654D01*
X018897Y012783D01*
X018860Y012914D01*
X018826Y013045D01*
X018796Y013178D01*
X018771Y013311D01*
X018749Y013445D01*
X018731Y013580D01*
X018717Y013715D01*
X018707Y013851D01*
X018701Y013986D01*
X018699Y014122D01*
X019290Y014122D02*
X019292Y014249D01*
X019298Y014375D01*
X019308Y014502D01*
X019322Y014628D01*
X019340Y014753D01*
X019361Y014878D01*
X019387Y015002D01*
X019417Y015125D01*
X019450Y015248D01*
X019487Y015369D01*
X019529Y015489D01*
X019573Y015607D01*
X019622Y015724D01*
X019674Y015840D01*
X019730Y015954D01*
X019789Y016066D01*
X019852Y016176D01*
X019918Y016284D01*
X019988Y016390D01*
X020061Y016494D01*
X020137Y016595D01*
X020216Y016694D01*
X020298Y016790D01*
X020384Y016884D01*
X020472Y016975D01*
X020563Y017063D01*
X020657Y017149D01*
X020753Y017231D01*
X020852Y017310D01*
X020953Y017386D01*
X021057Y017459D01*
X021163Y017529D01*
X021271Y017595D01*
X021381Y017658D01*
X021493Y017717D01*
X021607Y017773D01*
X021723Y017825D01*
X021840Y017874D01*
X021958Y017918D01*
X022078Y017960D01*
X022199Y017997D01*
X022322Y018030D01*
X022445Y018060D01*
X022569Y018086D01*
X022694Y018107D01*
X022819Y018125D01*
X022945Y018139D01*
X023072Y018149D01*
X023198Y018155D01*
X023325Y018157D01*
X023452Y018155D01*
X023578Y018149D01*
X023705Y018139D01*
X023831Y018125D01*
X023956Y018107D01*
X024081Y018086D01*
X024205Y018060D01*
X024328Y018030D01*
X024451Y017997D01*
X024572Y017960D01*
X024692Y017918D01*
X024810Y017874D01*
X024927Y017825D01*
X025043Y017773D01*
X025157Y017717D01*
X025269Y017658D01*
X025379Y017595D01*
X025487Y017529D01*
X025593Y017459D01*
X025697Y017386D01*
X025798Y017310D01*
X025897Y017231D01*
X025993Y017149D01*
X026087Y017063D01*
X026178Y016975D01*
X026266Y016884D01*
X026352Y016790D01*
X026434Y016694D01*
X026513Y016595D01*
X026589Y016494D01*
X026662Y016390D01*
X026732Y016284D01*
X026798Y016176D01*
X026861Y016066D01*
X026920Y015954D01*
X026976Y015840D01*
X027028Y015724D01*
X027077Y015607D01*
X027121Y015489D01*
X027163Y015369D01*
X027200Y015248D01*
X027233Y015125D01*
X027263Y015002D01*
X027289Y014878D01*
X027310Y014753D01*
X027328Y014628D01*
X027342Y014502D01*
X027352Y014375D01*
X027358Y014249D01*
X027360Y014122D01*
X027358Y013995D01*
X027352Y013869D01*
X027342Y013742D01*
X027328Y013616D01*
X027310Y013491D01*
X027289Y013366D01*
X027263Y013242D01*
X027233Y013119D01*
X027200Y012996D01*
X027163Y012875D01*
X027121Y012755D01*
X027077Y012637D01*
X027028Y012520D01*
X026976Y012404D01*
X026920Y012290D01*
X026861Y012178D01*
X026798Y012068D01*
X026732Y011960D01*
X026662Y011854D01*
X026589Y011750D01*
X026513Y011649D01*
X026434Y011550D01*
X026352Y011454D01*
X026266Y011360D01*
X026178Y011269D01*
X026087Y011181D01*
X025993Y011095D01*
X025897Y011013D01*
X025798Y010934D01*
X025697Y010858D01*
X025593Y010785D01*
X025487Y010715D01*
X025379Y010649D01*
X025269Y010586D01*
X025157Y010527D01*
X025043Y010471D01*
X024927Y010419D01*
X024810Y010370D01*
X024692Y010326D01*
X024572Y010284D01*
X024451Y010247D01*
X024328Y010214D01*
X024205Y010184D01*
X024081Y010158D01*
X023956Y010137D01*
X023831Y010119D01*
X023705Y010105D01*
X023578Y010095D01*
X023452Y010089D01*
X023325Y010087D01*
X023198Y010089D01*
X023072Y010095D01*
X022945Y010105D01*
X022819Y010119D01*
X022694Y010137D01*
X022569Y010158D01*
X022445Y010184D01*
X022322Y010214D01*
X022199Y010247D01*
X022078Y010284D01*
X021958Y010326D01*
X021840Y010370D01*
X021723Y010419D01*
X021607Y010471D01*
X021493Y010527D01*
X021381Y010586D01*
X021271Y010649D01*
X021163Y010715D01*
X021057Y010785D01*
X020953Y010858D01*
X020852Y010934D01*
X020753Y011013D01*
X020657Y011095D01*
X020563Y011181D01*
X020472Y011269D01*
X020384Y011360D01*
X020298Y011454D01*
X020216Y011550D01*
X020137Y011649D01*
X020061Y011750D01*
X019988Y011854D01*
X019918Y011960D01*
X019852Y012068D01*
X019789Y012178D01*
X019730Y012290D01*
X019674Y012404D01*
X019622Y012520D01*
X019573Y012637D01*
X019529Y012755D01*
X019487Y012875D01*
X019450Y012996D01*
X019417Y013119D01*
X019387Y013242D01*
X019361Y013366D01*
X019340Y013491D01*
X019322Y013616D01*
X019308Y013742D01*
X019298Y013869D01*
X019292Y013995D01*
X019290Y014122D01*
X018797Y014122D02*
X018799Y014256D01*
X018805Y014390D01*
X018815Y014524D01*
X018829Y014658D01*
X018847Y014791D01*
X018868Y014923D01*
X018894Y015055D01*
X018924Y015186D01*
X018957Y015316D01*
X018994Y015444D01*
X019036Y015572D01*
X019080Y015699D01*
X019129Y015824D01*
X019181Y015947D01*
X019237Y016069D01*
X019297Y016190D01*
X019360Y016308D01*
X019426Y016425D01*
X019496Y016539D01*
X019569Y016652D01*
X019646Y016762D01*
X019726Y016870D01*
X019809Y016975D01*
X019895Y017078D01*
X019984Y017178D01*
X020076Y017276D01*
X020171Y017371D01*
X020269Y017463D01*
X020369Y017552D01*
X020472Y017638D01*
X020577Y017721D01*
X020685Y017801D01*
X020795Y017878D01*
X020908Y017951D01*
X021022Y018021D01*
X021139Y018087D01*
X021257Y018150D01*
X021378Y018210D01*
X021500Y018266D01*
X021623Y018318D01*
X021748Y018367D01*
X021875Y018411D01*
X022003Y018453D01*
X022131Y018490D01*
X022261Y018523D01*
X022392Y018553D01*
X022524Y018579D01*
X022656Y018600D01*
X022789Y018618D01*
X022923Y018632D01*
X023057Y018642D01*
X023191Y018648D01*
X023325Y018650D01*
X023459Y018648D01*
X023593Y018642D01*
X023727Y018632D01*
X023861Y018618D01*
X023994Y018600D01*
X024126Y018579D01*
X024258Y018553D01*
X024389Y018523D01*
X024519Y018490D01*
X024647Y018453D01*
X024775Y018411D01*
X024902Y018367D01*
X025027Y018318D01*
X025150Y018266D01*
X025272Y018210D01*
X025393Y018150D01*
X025511Y018087D01*
X025628Y018021D01*
X025742Y017951D01*
X025855Y017878D01*
X025965Y017801D01*
X026073Y017721D01*
X026178Y017638D01*
X026281Y017552D01*
X026381Y017463D01*
X026479Y017371D01*
X026574Y017276D01*
X026666Y017178D01*
X026755Y017078D01*
X026841Y016975D01*
X026924Y016870D01*
X027004Y016762D01*
X027081Y016652D01*
X027154Y016539D01*
X027224Y016425D01*
X027290Y016308D01*
X027353Y016190D01*
X027413Y016069D01*
X027469Y015947D01*
X027521Y015824D01*
X027570Y015699D01*
X027614Y015572D01*
X027656Y015444D01*
X027693Y015316D01*
X027726Y015186D01*
X027756Y015055D01*
X027782Y014923D01*
X027803Y014791D01*
X027821Y014658D01*
X027835Y014524D01*
X027845Y014390D01*
X027851Y014256D01*
X027853Y014122D01*
X027851Y013988D01*
X027845Y013854D01*
X027835Y013720D01*
X027821Y013586D01*
X027803Y013453D01*
X027782Y013321D01*
X027756Y013189D01*
X027726Y013058D01*
X027693Y012928D01*
X027656Y012800D01*
X027614Y012672D01*
X027570Y012545D01*
X027521Y012420D01*
X027469Y012297D01*
X027413Y012175D01*
X027353Y012054D01*
X027290Y011936D01*
X027224Y011819D01*
X027154Y011705D01*
X027081Y011592D01*
X027004Y011482D01*
X026924Y011374D01*
X026841Y011269D01*
X026755Y011166D01*
X026666Y011066D01*
X026574Y010968D01*
X026479Y010873D01*
X026381Y010781D01*
X026281Y010692D01*
X026178Y010606D01*
X026073Y010523D01*
X025965Y010443D01*
X025855Y010366D01*
X025742Y010293D01*
X025628Y010223D01*
X025511Y010157D01*
X025393Y010094D01*
X025272Y010034D01*
X025150Y009978D01*
X025027Y009926D01*
X024902Y009877D01*
X024775Y009833D01*
X024647Y009791D01*
X024519Y009754D01*
X024389Y009721D01*
X024258Y009691D01*
X024126Y009665D01*
X023994Y009644D01*
X023861Y009626D01*
X023727Y009612D01*
X023593Y009602D01*
X023459Y009596D01*
X023325Y009594D01*
X023191Y009596D01*
X023057Y009602D01*
X022923Y009612D01*
X022789Y009626D01*
X022656Y009644D01*
X022524Y009665D01*
X022392Y009691D01*
X022261Y009721D01*
X022131Y009754D01*
X022003Y009791D01*
X021875Y009833D01*
X021748Y009877D01*
X021623Y009926D01*
X021500Y009978D01*
X021378Y010034D01*
X021257Y010094D01*
X021139Y010157D01*
X021022Y010223D01*
X020908Y010293D01*
X020795Y010366D01*
X020685Y010443D01*
X020577Y010523D01*
X020472Y010606D01*
X020369Y010692D01*
X020269Y010781D01*
X020171Y010873D01*
X020076Y010968D01*
X019984Y011066D01*
X019895Y011166D01*
X019809Y011269D01*
X019726Y011374D01*
X019646Y011482D01*
X019569Y011592D01*
X019496Y011705D01*
X019426Y011819D01*
X019360Y011936D01*
X019297Y012054D01*
X019237Y012175D01*
X019181Y012297D01*
X019129Y012420D01*
X019080Y012545D01*
X019036Y012672D01*
X018994Y012800D01*
X018957Y012928D01*
X018924Y013058D01*
X018894Y013189D01*
X018868Y013321D01*
X018847Y013453D01*
X018829Y013586D01*
X018815Y013720D01*
X018805Y013854D01*
X018799Y013988D01*
X018797Y014122D01*
X028700Y004125D02*
X029200Y004125D01*
M02*
