G75*
%MOIN*%
%OFA0B0*%
%FSLAX24Y24*%
%IPPOS*%
%LPD*%
%AMOC8*
5,1,8,0,0,1.08239X$1,22.5*
%
%ADD10C,0.0000*%
D10*
X002700Y000500D02*
X002700Y021500D01*
X028100Y021500D01*
X028700Y020900D01*
X028700Y016400D01*
X029700Y015400D01*
X029700Y002500D01*
X028700Y001500D01*
X028700Y000500D01*
X002700Y000500D01*
X007570Y001500D02*
X007572Y001550D01*
X007578Y001600D01*
X007588Y001649D01*
X007602Y001697D01*
X007619Y001744D01*
X007640Y001789D01*
X007665Y001833D01*
X007693Y001874D01*
X007725Y001913D01*
X007759Y001950D01*
X007796Y001984D01*
X007836Y002014D01*
X007878Y002041D01*
X007922Y002065D01*
X007968Y002086D01*
X008015Y002102D01*
X008063Y002115D01*
X008113Y002124D01*
X008162Y002129D01*
X008213Y002130D01*
X008263Y002127D01*
X008312Y002120D01*
X008361Y002109D01*
X008409Y002094D01*
X008455Y002076D01*
X008500Y002054D01*
X008543Y002028D01*
X008584Y001999D01*
X008623Y001967D01*
X008659Y001932D01*
X008691Y001894D01*
X008721Y001854D01*
X008748Y001811D01*
X008771Y001767D01*
X008790Y001721D01*
X008806Y001673D01*
X008818Y001624D01*
X008826Y001575D01*
X008830Y001525D01*
X008830Y001475D01*
X008826Y001425D01*
X008818Y001376D01*
X008806Y001327D01*
X008790Y001279D01*
X008771Y001233D01*
X008748Y001189D01*
X008721Y001146D01*
X008691Y001106D01*
X008659Y001068D01*
X008623Y001033D01*
X008584Y001001D01*
X008543Y000972D01*
X008500Y000946D01*
X008455Y000924D01*
X008409Y000906D01*
X008361Y000891D01*
X008312Y000880D01*
X008263Y000873D01*
X008213Y000870D01*
X008162Y000871D01*
X008113Y000876D01*
X008063Y000885D01*
X008015Y000898D01*
X007968Y000914D01*
X007922Y000935D01*
X007878Y000959D01*
X007836Y000986D01*
X007796Y001016D01*
X007759Y001050D01*
X007725Y001087D01*
X007693Y001126D01*
X007665Y001167D01*
X007640Y001211D01*
X007619Y001256D01*
X007602Y001303D01*
X007588Y001351D01*
X007578Y001400D01*
X007572Y001450D01*
X007570Y001500D01*
X011558Y005260D02*
X011560Y005295D01*
X011566Y005330D01*
X011576Y005364D01*
X011589Y005397D01*
X011606Y005428D01*
X011627Y005456D01*
X011650Y005483D01*
X011677Y005506D01*
X011705Y005527D01*
X011736Y005544D01*
X011769Y005557D01*
X011803Y005567D01*
X011838Y005573D01*
X011873Y005575D01*
X011908Y005573D01*
X011943Y005567D01*
X011977Y005557D01*
X012010Y005544D01*
X012041Y005527D01*
X012069Y005506D01*
X012096Y005483D01*
X012119Y005456D01*
X012140Y005428D01*
X012157Y005397D01*
X012170Y005364D01*
X012180Y005330D01*
X012186Y005295D01*
X012188Y005260D01*
X012186Y005225D01*
X012180Y005190D01*
X012170Y005156D01*
X012157Y005123D01*
X012140Y005092D01*
X012119Y005064D01*
X012096Y005037D01*
X012069Y005014D01*
X012041Y004993D01*
X012010Y004976D01*
X011977Y004963D01*
X011943Y004953D01*
X011908Y004947D01*
X011873Y004945D01*
X011838Y004947D01*
X011803Y004953D01*
X011769Y004963D01*
X011736Y004976D01*
X011705Y004993D01*
X011677Y005014D01*
X011650Y005037D01*
X011627Y005064D01*
X011606Y005092D01*
X011589Y005123D01*
X011576Y005156D01*
X011566Y005190D01*
X011560Y005225D01*
X011558Y005260D01*
X011656Y013567D02*
X011658Y013596D01*
X011664Y013624D01*
X011673Y013652D01*
X011686Y013678D01*
X011703Y013701D01*
X011722Y013723D01*
X011744Y013742D01*
X011769Y013757D01*
X011795Y013770D01*
X011823Y013778D01*
X011851Y013783D01*
X011880Y013784D01*
X011909Y013781D01*
X011937Y013774D01*
X011964Y013764D01*
X011990Y013750D01*
X012013Y013733D01*
X012034Y013713D01*
X012052Y013690D01*
X012067Y013665D01*
X012078Y013638D01*
X012086Y013610D01*
X012090Y013581D01*
X012090Y013553D01*
X012086Y013524D01*
X012078Y013496D01*
X012067Y013469D01*
X012052Y013444D01*
X012034Y013421D01*
X012013Y013401D01*
X011990Y013384D01*
X011964Y013370D01*
X011937Y013360D01*
X011909Y013353D01*
X011880Y013350D01*
X011851Y013351D01*
X011823Y013356D01*
X011795Y013364D01*
X011769Y013377D01*
X011744Y013392D01*
X011722Y013411D01*
X011703Y013433D01*
X011686Y013456D01*
X011673Y013482D01*
X011664Y013510D01*
X011658Y013538D01*
X011656Y013567D01*
X008070Y020500D02*
X008072Y020550D01*
X008078Y020600D01*
X008088Y020649D01*
X008102Y020697D01*
X008119Y020744D01*
X008140Y020789D01*
X008165Y020833D01*
X008193Y020874D01*
X008225Y020913D01*
X008259Y020950D01*
X008296Y020984D01*
X008336Y021014D01*
X008378Y021041D01*
X008422Y021065D01*
X008468Y021086D01*
X008515Y021102D01*
X008563Y021115D01*
X008613Y021124D01*
X008662Y021129D01*
X008713Y021130D01*
X008763Y021127D01*
X008812Y021120D01*
X008861Y021109D01*
X008909Y021094D01*
X008955Y021076D01*
X009000Y021054D01*
X009043Y021028D01*
X009084Y020999D01*
X009123Y020967D01*
X009159Y020932D01*
X009191Y020894D01*
X009221Y020854D01*
X009248Y020811D01*
X009271Y020767D01*
X009290Y020721D01*
X009306Y020673D01*
X009318Y020624D01*
X009326Y020575D01*
X009330Y020525D01*
X009330Y020475D01*
X009326Y020425D01*
X009318Y020376D01*
X009306Y020327D01*
X009290Y020279D01*
X009271Y020233D01*
X009248Y020189D01*
X009221Y020146D01*
X009191Y020106D01*
X009159Y020068D01*
X009123Y020033D01*
X009084Y020001D01*
X009043Y019972D01*
X009000Y019946D01*
X008955Y019924D01*
X008909Y019906D01*
X008861Y019891D01*
X008812Y019880D01*
X008763Y019873D01*
X008713Y019870D01*
X008662Y019871D01*
X008613Y019876D01*
X008563Y019885D01*
X008515Y019898D01*
X008468Y019914D01*
X008422Y019935D01*
X008378Y019959D01*
X008336Y019986D01*
X008296Y020016D01*
X008259Y020050D01*
X008225Y020087D01*
X008193Y020126D01*
X008165Y020167D01*
X008140Y020211D01*
X008119Y020256D01*
X008102Y020303D01*
X008088Y020351D01*
X008078Y020400D01*
X008072Y020450D01*
X008070Y020500D01*
X028070Y014500D02*
X028072Y014550D01*
X028078Y014600D01*
X028088Y014649D01*
X028102Y014697D01*
X028119Y014744D01*
X028140Y014789D01*
X028165Y014833D01*
X028193Y014874D01*
X028225Y014913D01*
X028259Y014950D01*
X028296Y014984D01*
X028336Y015014D01*
X028378Y015041D01*
X028422Y015065D01*
X028468Y015086D01*
X028515Y015102D01*
X028563Y015115D01*
X028613Y015124D01*
X028662Y015129D01*
X028713Y015130D01*
X028763Y015127D01*
X028812Y015120D01*
X028861Y015109D01*
X028909Y015094D01*
X028955Y015076D01*
X029000Y015054D01*
X029043Y015028D01*
X029084Y014999D01*
X029123Y014967D01*
X029159Y014932D01*
X029191Y014894D01*
X029221Y014854D01*
X029248Y014811D01*
X029271Y014767D01*
X029290Y014721D01*
X029306Y014673D01*
X029318Y014624D01*
X029326Y014575D01*
X029330Y014525D01*
X029330Y014475D01*
X029326Y014425D01*
X029318Y014376D01*
X029306Y014327D01*
X029290Y014279D01*
X029271Y014233D01*
X029248Y014189D01*
X029221Y014146D01*
X029191Y014106D01*
X029159Y014068D01*
X029123Y014033D01*
X029084Y014001D01*
X029043Y013972D01*
X029000Y013946D01*
X028955Y013924D01*
X028909Y013906D01*
X028861Y013891D01*
X028812Y013880D01*
X028763Y013873D01*
X028713Y013870D01*
X028662Y013871D01*
X028613Y013876D01*
X028563Y013885D01*
X028515Y013898D01*
X028468Y013914D01*
X028422Y013935D01*
X028378Y013959D01*
X028336Y013986D01*
X028296Y014016D01*
X028259Y014050D01*
X028225Y014087D01*
X028193Y014126D01*
X028165Y014167D01*
X028140Y014211D01*
X028119Y014256D01*
X028102Y014303D01*
X028088Y014351D01*
X028078Y014400D01*
X028072Y014450D01*
X028070Y014500D01*
M02*
