G75*
%MOIN*%
%OFA0B0*%
%FSLAX24Y24*%
%IPPOS*%
%LPD*%
%AMOC8*
5,1,8,0,0,1.08239X$1,22.5*
%
%ADD10C,0.0060*%
%ADD11C,0.0600*%
%ADD12OC8,0.0520*%
%ADD13R,0.1102X0.0787*%
%ADD14R,0.1575X0.0276*%
%ADD15R,0.1575X0.0472*%
%ADD16OC8,0.0660*%
%ADD17OC8,0.0620*%
%ADD18C,0.0620*%
%ADD19C,0.0520*%
%ADD20C,0.0574*%
%ADD21C,0.1306*%
%ADD22C,0.0660*%
%ADD23C,0.0554*%
%ADD24C,0.0594*%
%ADD25C,0.0100*%
%ADD26C,0.0396*%
%ADD27C,0.0120*%
D10*
X023249Y004687D02*
X023355Y004580D01*
X023249Y004687D02*
X023249Y005114D01*
X023355Y005007D02*
X023142Y005007D01*
X023572Y004900D02*
X023678Y005007D01*
X023999Y005007D01*
X023999Y005221D02*
X023999Y004580D01*
X023678Y004580D01*
X023572Y004687D01*
X023572Y004900D01*
X024216Y005007D02*
X024323Y005007D01*
X024323Y004580D01*
X024216Y004580D02*
X024430Y004580D01*
X024646Y004687D02*
X024646Y004900D01*
X024753Y005007D01*
X025073Y005007D01*
X025073Y005221D02*
X025073Y004580D01*
X024753Y004580D01*
X024646Y004687D01*
X025290Y004580D02*
X025504Y004580D01*
X025397Y004580D02*
X025397Y005007D01*
X025290Y005007D01*
X025397Y005221D02*
X025397Y005327D01*
X025720Y004900D02*
X025827Y005007D01*
X026147Y005007D01*
X026147Y005221D02*
X026147Y004580D01*
X025827Y004580D01*
X025720Y004687D01*
X025720Y004900D01*
X026365Y005007D02*
X026471Y005007D01*
X026471Y004580D01*
X026365Y004580D02*
X026578Y004580D01*
X026901Y004687D02*
X026901Y005114D01*
X026794Y005007D02*
X027008Y005007D01*
X026901Y004687D02*
X027008Y004580D01*
X027224Y004580D02*
X027331Y004580D01*
X027331Y004687D01*
X027224Y004687D01*
X027224Y004580D01*
X027546Y004687D02*
X027546Y004900D01*
X027653Y005007D01*
X027973Y005007D01*
X028191Y004900D02*
X028191Y004687D01*
X028298Y004580D01*
X028511Y004580D01*
X028618Y004687D01*
X028618Y004900D01*
X028511Y005007D01*
X028298Y005007D01*
X028191Y004900D01*
X027973Y004580D02*
X027653Y004580D01*
X027546Y004687D01*
X026471Y005221D02*
X026471Y005327D01*
X024323Y005327D02*
X024323Y005221D01*
X028835Y005007D02*
X028835Y004580D01*
X029049Y004580D02*
X029049Y004900D01*
X029156Y005007D01*
X029262Y004900D01*
X029262Y004580D01*
X029049Y004900D02*
X028942Y005007D01*
X028835Y005007D01*
D11*
X028650Y006375D02*
X029250Y006375D01*
X029250Y007375D02*
X028650Y007375D01*
X028650Y008375D02*
X029250Y008375D01*
X029250Y009375D02*
X028650Y009375D01*
X028650Y010375D02*
X029250Y010375D01*
X029250Y011375D02*
X028650Y011375D01*
X028650Y012375D02*
X029250Y012375D01*
X014780Y003265D02*
X014180Y003265D01*
X012220Y003265D02*
X011620Y003265D01*
X011620Y001485D02*
X012220Y001485D01*
X014180Y001485D02*
X014780Y001485D01*
D12*
X019700Y002250D03*
X019700Y003250D03*
X021450Y003000D03*
X021950Y002250D03*
X022450Y003000D03*
X019825Y004625D03*
X019075Y005125D03*
X019825Y005625D03*
X020950Y005125D03*
X021950Y005125D03*
X022950Y005125D03*
X023950Y005125D03*
X023950Y006125D03*
X024950Y006125D03*
X025950Y006125D03*
X026950Y006125D03*
X026950Y009125D03*
X025950Y009125D03*
X024950Y009125D03*
X023950Y009125D03*
X022950Y009125D03*
X021950Y009125D03*
X020950Y009125D03*
X019700Y009875D03*
X015825Y012375D03*
X014825Y012375D03*
X014825Y013375D03*
X014825Y014375D03*
X017825Y014375D03*
X017825Y013375D03*
X019075Y018750D03*
X020075Y018750D03*
X019700Y006875D03*
X020950Y006125D03*
X021950Y006125D03*
X022950Y006125D03*
D13*
X004117Y003449D03*
X012346Y004394D03*
X012306Y014472D03*
X004117Y014433D03*
D14*
X013054Y013803D03*
X013054Y013331D03*
X013054Y012819D03*
D15*
X013054Y012189D03*
X013054Y011205D03*
X013054Y010220D03*
X013054Y009236D03*
X013054Y008252D03*
X013054Y007268D03*
X013054Y006283D03*
X013054Y005299D03*
D16*
X015700Y001500D03*
X016700Y001500D03*
X017700Y001500D03*
X018700Y001500D03*
X019700Y001500D03*
X020700Y001500D03*
X022700Y001500D03*
X023700Y001500D03*
X024700Y001500D03*
X025700Y001500D03*
X026700Y001500D03*
X027700Y001500D03*
X027700Y020500D03*
X026700Y020500D03*
X025700Y020500D03*
X024700Y020500D03*
X023700Y020500D03*
X022700Y020500D03*
X021700Y020500D03*
X020700Y020500D03*
X019100Y020500D03*
X018100Y020500D03*
X017100Y020500D03*
X016100Y020500D03*
X015100Y020500D03*
X014100Y020500D03*
X013100Y020500D03*
X012100Y020500D03*
D17*
X025700Y002625D03*
D18*
X025700Y003625D03*
D19*
X018210Y004125D02*
X017690Y004125D01*
X017690Y005125D02*
X018210Y005125D01*
X018210Y006125D02*
X017690Y006125D01*
X017690Y007125D02*
X018210Y007125D01*
X018210Y008125D02*
X017690Y008125D01*
X017690Y009125D02*
X018210Y009125D01*
X018210Y010125D02*
X017690Y010125D01*
X017690Y011125D02*
X018210Y011125D01*
X015210Y011125D02*
X014690Y011125D01*
X014690Y010125D02*
X015210Y010125D01*
X015210Y009125D02*
X014690Y009125D01*
X014690Y008125D02*
X015210Y008125D01*
X015210Y007125D02*
X014690Y007125D01*
X014690Y006125D02*
X015210Y006125D01*
X015210Y005125D02*
X014690Y005125D01*
X014690Y004125D02*
X015210Y004125D01*
X015085Y015750D02*
X014565Y015750D01*
X014565Y016750D02*
X015085Y016750D01*
X015085Y017750D02*
X014565Y017750D01*
X014565Y018750D02*
X015085Y018750D01*
X017565Y018750D02*
X018085Y018750D01*
X018085Y017750D02*
X017565Y017750D01*
X017565Y016750D02*
X018085Y016750D01*
X018085Y015750D02*
X017565Y015750D01*
D20*
X007392Y016622D03*
X007392Y017606D03*
X007392Y018394D03*
X007392Y019378D03*
D21*
X006325Y020587D03*
X006325Y015413D03*
D22*
X013950Y017750D03*
X013950Y018750D03*
D23*
X023325Y019437D03*
X023325Y011563D03*
D24*
X028653Y003625D02*
X029247Y003625D01*
X029247Y002625D02*
X028653Y002625D01*
D25*
X028950Y002625D02*
X028325Y002625D01*
X027825Y003125D01*
X025325Y003125D01*
X024825Y002625D01*
X020700Y002625D01*
X021450Y003000D02*
X021450Y003125D01*
X021325Y003250D01*
X019700Y003250D01*
X018200Y003250D01*
X017700Y002750D01*
X017700Y001500D01*
X015700Y001500D02*
X015685Y001485D01*
X014480Y001485D01*
X011920Y001485D01*
X011920Y003265D02*
X012185Y003265D01*
X012325Y003375D01*
X012325Y004373D01*
X012346Y004394D01*
X012346Y005354D01*
X012325Y005375D01*
X012450Y005375D01*
X011825Y006000D01*
X011825Y008250D01*
X013052Y008250D01*
X013054Y008252D01*
X013054Y009236D02*
X014061Y009236D01*
X014450Y009625D01*
X015700Y009625D01*
X015700Y004000D01*
X016075Y003625D01*
X022450Y003625D01*
X025700Y003625D01*
X025700Y002625D02*
X025325Y002250D01*
X021950Y002250D01*
X019700Y002250D01*
X019700Y001500D01*
X022450Y003000D02*
X022450Y003625D01*
X014950Y004125D02*
X012614Y004125D01*
X012346Y004394D01*
X012450Y005375D02*
X012979Y005375D01*
X013054Y005299D01*
X013213Y006125D02*
X014950Y006125D01*
X013843Y007268D02*
X014700Y008125D01*
X014950Y008125D01*
X013843Y007268D02*
X013054Y007268D01*
X013054Y006283D02*
X013213Y006125D01*
X011825Y008250D02*
X011825Y011250D01*
X013009Y011250D01*
X013054Y011205D01*
X013950Y012125D02*
X014200Y011875D01*
X015325Y011875D01*
X015825Y012375D02*
X023325Y012375D01*
X023325Y011563D01*
X023325Y012375D02*
X028950Y012375D01*
X025450Y011000D02*
X020700Y011000D01*
X021950Y012750D02*
X016200Y012750D01*
X015575Y013375D01*
X014825Y013375D01*
X015381Y012819D02*
X015825Y012375D01*
X015381Y012819D02*
X013054Y012819D01*
X011894Y012819D01*
X011825Y012750D01*
X011700Y012875D01*
X007325Y012875D01*
X004450Y012875D01*
X004200Y013125D01*
X004200Y014516D01*
X004117Y014433D01*
X007325Y016625D02*
X008200Y016625D01*
X008203Y016622D01*
X009075Y015750D01*
X014825Y015750D01*
X016700Y015750D01*
X017200Y016250D01*
X020075Y016250D01*
X018700Y014875D02*
X014450Y014875D01*
X014200Y014625D01*
X014200Y013875D01*
X014128Y013803D01*
X013054Y013803D01*
X013054Y013331D02*
X014156Y013331D01*
X014700Y013875D01*
X019075Y013875D01*
X017825Y015750D02*
X027075Y015750D01*
X026450Y016250D02*
X022700Y016250D01*
X024325Y017250D02*
X017200Y017250D01*
X016075Y016250D01*
X009200Y016250D01*
X008325Y017125D01*
X007873Y017125D01*
X007392Y017606D01*
X007392Y016622D02*
X008203Y016622D01*
X007392Y019378D02*
X015697Y019378D01*
X016325Y018750D01*
X017825Y018750D01*
X019075Y018750D01*
X016950Y018250D02*
X022138Y018250D01*
X023325Y019437D01*
X024700Y020500D02*
X024700Y017625D01*
X024325Y017250D01*
X027325Y016750D02*
X017825Y016750D01*
X016950Y018250D02*
X015450Y016750D01*
X014825Y016750D01*
X014825Y017750D02*
X013950Y017750D01*
X013950Y018750D02*
X014825Y018750D01*
X014825Y014375D02*
X016700Y014375D01*
X013950Y012125D02*
X013118Y012125D01*
X013054Y012189D01*
X013054Y012819D02*
X011881Y012819D01*
X011825Y012750D01*
X011825Y011250D01*
X013054Y010220D02*
X013150Y010125D01*
X014950Y010125D01*
X015700Y009625D02*
X015700Y010875D01*
X015450Y011125D01*
X014950Y011125D01*
X023450Y009750D02*
X024950Y009750D01*
D26*
X024950Y009750D03*
X025450Y011000D03*
X023450Y009750D03*
X020950Y010375D03*
X020700Y011000D03*
X021950Y012750D03*
X019075Y013875D03*
X018700Y014875D03*
X016700Y014375D03*
X020075Y016250D03*
X019575Y017750D03*
X022700Y016250D03*
X022450Y015250D03*
X026450Y016250D03*
X027075Y015750D03*
X027325Y016750D03*
X015325Y011875D03*
X022950Y007250D03*
X026950Y007875D03*
X020700Y002625D03*
X007325Y012875D03*
D27*
X007950Y015250D02*
X006825Y016375D01*
X006825Y017952D01*
X007392Y018394D01*
X007950Y015250D02*
X022450Y015250D01*
X023825Y017750D02*
X019575Y017750D01*
X023825Y017750D02*
X024075Y018000D01*
X024075Y020125D01*
X023700Y020500D01*
X020950Y010375D02*
X028950Y010375D01*
X028200Y009750D02*
X025950Y009750D01*
X025950Y009125D01*
X025325Y008375D02*
X024950Y008750D01*
X024950Y009125D01*
X023950Y009125D02*
X023950Y008750D01*
X023700Y008500D01*
X022200Y008500D01*
X021950Y008750D01*
X021950Y009125D01*
X022950Y007250D02*
X027325Y007250D01*
X028200Y006375D01*
X028950Y006375D01*
X028950Y007375D02*
X028200Y007375D01*
X027700Y007875D01*
X026950Y007875D01*
X025325Y008375D02*
X028950Y008375D01*
X028950Y009375D02*
X028575Y009375D01*
X028200Y009750D01*
X020950Y005125D02*
X020450Y005625D01*
X019825Y005625D01*
X019075Y005125D02*
X019075Y006250D01*
X019700Y006875D01*
X019825Y004625D02*
X019325Y004125D01*
X017950Y004125D01*
M02*
