G75*
%MOIN*%
%OFA0B0*%
%FSLAX24Y24*%
%IPPOS*%
%LPD*%
%AMOC8*
5,1,8,0,0,1.08239X$1,22.5*
%
%ADD10R,0.3500X0.1250*%
%ADD11C,0.0600*%
%ADD12OC8,0.0520*%
%ADD13OC8,0.0660*%
%ADD14OC8,0.0620*%
%ADD15C,0.0620*%
%ADD16C,0.0520*%
%ADD17C,0.0574*%
%ADD18C,0.1306*%
%ADD19C,0.0660*%
%ADD20C,0.0554*%
%ADD21C,0.0594*%
%ADD22C,0.0100*%
%ADD23C,0.0396*%
%ADD24C,0.0120*%
%ADD25C,0.0160*%
D10*
X011700Y018250D03*
D11*
X011620Y001485D02*
X012220Y001485D01*
X014180Y001485D02*
X014780Y001485D01*
X014780Y003265D02*
X014180Y003265D01*
X012220Y003265D02*
X011620Y003265D01*
X028650Y006375D02*
X029250Y006375D01*
X029250Y007375D02*
X028650Y007375D01*
X028650Y008375D02*
X029250Y008375D01*
X029250Y009375D02*
X028650Y009375D01*
X028650Y010375D02*
X029250Y010375D01*
X029250Y011375D02*
X028650Y011375D01*
X028650Y012375D02*
X029250Y012375D01*
D12*
X026950Y009125D03*
X025950Y009125D03*
X024950Y009125D03*
X023950Y009125D03*
X022950Y009125D03*
X021950Y009125D03*
X020950Y009125D03*
X019700Y009875D03*
X015825Y012375D03*
X014825Y012375D03*
X014825Y013375D03*
X014825Y014375D03*
X017825Y014375D03*
X017825Y013375D03*
X019075Y018750D03*
X020075Y018750D03*
X019700Y006875D03*
X020950Y006125D03*
X021950Y006125D03*
X022950Y006125D03*
X023950Y006125D03*
X024950Y006125D03*
X025950Y006125D03*
X026950Y006125D03*
X023950Y005125D03*
X022950Y005125D03*
X021950Y005125D03*
X020950Y005125D03*
X019825Y004625D03*
X019075Y005125D03*
X019825Y005625D03*
X019700Y003250D03*
X019700Y002250D03*
X021450Y003000D03*
X021950Y002250D03*
X022450Y003000D03*
D13*
X022700Y001500D03*
X023700Y001500D03*
X024700Y001500D03*
X025700Y001500D03*
X026700Y001500D03*
X027700Y001500D03*
X020700Y001500D03*
X019700Y001500D03*
X018700Y001500D03*
X017700Y001500D03*
X016700Y001500D03*
X015700Y001500D03*
X016100Y020500D03*
X017100Y020500D03*
X018100Y020500D03*
X019100Y020500D03*
X020700Y020500D03*
X021700Y020500D03*
X022700Y020500D03*
X023700Y020500D03*
X024700Y020500D03*
X025700Y020500D03*
X026700Y020500D03*
X027700Y020500D03*
X015100Y020500D03*
X014100Y020500D03*
X013100Y020500D03*
X012100Y020500D03*
D14*
X025700Y002625D03*
D15*
X025700Y003625D03*
D16*
X018210Y004125D02*
X017690Y004125D01*
X017690Y005125D02*
X018210Y005125D01*
X018210Y006125D02*
X017690Y006125D01*
X017690Y007125D02*
X018210Y007125D01*
X018210Y008125D02*
X017690Y008125D01*
X017690Y009125D02*
X018210Y009125D01*
X018210Y010125D02*
X017690Y010125D01*
X017690Y011125D02*
X018210Y011125D01*
X015210Y011125D02*
X014690Y011125D01*
X014690Y010125D02*
X015210Y010125D01*
X015210Y009125D02*
X014690Y009125D01*
X014690Y008125D02*
X015210Y008125D01*
X015210Y007125D02*
X014690Y007125D01*
X014690Y006125D02*
X015210Y006125D01*
X015210Y005125D02*
X014690Y005125D01*
X014690Y004125D02*
X015210Y004125D01*
X015085Y015750D02*
X014565Y015750D01*
X014565Y016750D02*
X015085Y016750D01*
X015085Y017750D02*
X014565Y017750D01*
X014565Y018750D02*
X015085Y018750D01*
X017565Y018750D02*
X018085Y018750D01*
X018085Y017750D02*
X017565Y017750D01*
X017565Y016750D02*
X018085Y016750D01*
X018085Y015750D02*
X017565Y015750D01*
D17*
X007392Y016622D03*
X007392Y017606D03*
X007392Y018394D03*
X007392Y019378D03*
D18*
X006325Y020587D03*
X006325Y015413D03*
D19*
X013950Y017750D03*
X013950Y018750D03*
D20*
X023325Y019437D03*
X023325Y011563D03*
D21*
X028653Y003625D02*
X029247Y003625D01*
X029247Y002625D02*
X028653Y002625D01*
D22*
X027700Y001500D02*
X027700Y016375D01*
X027325Y016750D01*
X026450Y016250D02*
X026450Y006625D01*
X026950Y006125D01*
X025950Y006125D02*
X025450Y006625D01*
X025450Y011000D01*
X024950Y009750D02*
X024950Y019750D01*
X025700Y020500D01*
X022700Y020500D02*
X022700Y016250D01*
X022200Y015750D02*
X023950Y015750D01*
X024450Y015250D01*
X024450Y006625D01*
X024950Y006125D01*
X023450Y006875D02*
X023450Y009750D01*
X021950Y009125D02*
X021950Y012750D01*
X020700Y011000D02*
X020700Y020500D01*
X021700Y020500D02*
X021700Y016250D01*
X022200Y015750D01*
X020075Y016250D02*
X020075Y018750D01*
X018700Y019875D02*
X018700Y014875D01*
X017825Y014375D02*
X017325Y014375D01*
X017325Y015750D01*
X017825Y015750D01*
X017825Y016750D02*
X017075Y016750D01*
X017075Y013375D01*
X017825Y013375D01*
X016450Y013000D02*
X016450Y005375D01*
X016200Y005125D01*
X014950Y005125D01*
X014950Y004125D02*
X014950Y003735D01*
X014480Y003265D01*
X014950Y004125D02*
X017950Y004125D01*
X017950Y002750D01*
X018450Y002250D01*
X019700Y002250D01*
X020700Y002625D02*
X020700Y001500D01*
X019700Y001500D02*
X018700Y001500D01*
X017950Y005125D02*
X017450Y005125D01*
X017325Y005250D01*
X017325Y006000D01*
X017450Y006125D01*
X017950Y006125D01*
X017950Y007125D02*
X017450Y007125D01*
X017325Y007250D01*
X017325Y009000D01*
X017450Y009125D01*
X017950Y009125D01*
X016200Y007250D02*
X016075Y007125D01*
X014950Y007125D01*
X016200Y007250D02*
X016200Y012875D01*
X016100Y012975D01*
X016100Y020500D01*
X016325Y019725D02*
X017100Y020500D01*
X018100Y020500D02*
X018100Y020475D01*
X018700Y019875D01*
X019075Y020475D02*
X019100Y020500D01*
X019075Y020475D02*
X019075Y013875D01*
X016700Y014375D02*
X016700Y018250D01*
X017200Y018750D01*
X017825Y018750D01*
X016450Y019725D02*
X016325Y013125D01*
X016450Y013000D01*
X015825Y013000D02*
X015325Y012500D01*
X015325Y011875D01*
X014950Y012250D02*
X014825Y012375D01*
X014950Y012250D02*
X014950Y011125D01*
X014200Y012500D02*
X014200Y009375D01*
X014450Y009125D01*
X014950Y009125D01*
X014200Y012500D02*
X014575Y012875D01*
X015200Y012875D01*
X015575Y013250D01*
X015575Y019000D01*
X014100Y020475D01*
X014100Y020500D01*
X015100Y020500D02*
X015100Y020225D01*
X015825Y019500D01*
X015825Y013000D01*
X014825Y013375D02*
X014825Y014375D01*
X016325Y019725D02*
X016450Y019725D01*
X007392Y016622D02*
X007325Y016555D01*
X007325Y012875D01*
X022950Y006375D02*
X022950Y006125D01*
X022950Y006375D02*
X023450Y006875D01*
X026700Y003750D02*
X027450Y004500D01*
X027450Y015375D01*
X027075Y015750D01*
X026700Y003750D02*
X026700Y001500D01*
D23*
X020700Y002625D03*
X022950Y007250D03*
X023450Y009750D03*
X024950Y009750D03*
X025450Y011000D03*
X021950Y012750D03*
X020700Y011000D03*
X020950Y010375D03*
X019075Y013875D03*
X018700Y014875D03*
X016700Y014375D03*
X020075Y016250D03*
X019575Y017750D03*
X022700Y016250D03*
X022450Y015250D03*
X026450Y016250D03*
X027075Y015750D03*
X027325Y016750D03*
X015325Y011875D03*
X007325Y012875D03*
X026950Y007875D03*
D24*
X026950Y009125D01*
X022950Y009125D02*
X022950Y007250D01*
X021950Y007000D02*
X021450Y006500D01*
X021450Y003000D01*
X022700Y001750D02*
X023200Y002250D01*
X023200Y003750D01*
X022450Y004500D01*
X022450Y015250D01*
X019575Y017750D02*
X019575Y009875D01*
X019700Y009875D01*
X020950Y010375D02*
X020950Y009125D01*
X021950Y009125D02*
X021950Y007000D01*
X021950Y006125D02*
X021950Y005125D01*
X020950Y005125D02*
X020950Y006125D01*
X022950Y006125D02*
X022950Y005125D01*
X023950Y005125D02*
X023950Y006125D01*
X022700Y001750D02*
X022700Y001500D01*
X014825Y015750D02*
X013100Y017475D01*
X013100Y020500D01*
D25*
X028075Y010875D02*
X028075Y004000D01*
X028450Y003625D01*
X028950Y003625D01*
X028075Y010875D02*
X028575Y011375D01*
X028950Y011375D01*
M02*
